<svg width="57" height="68" viewBox="0 0 57 68" fill="none" xmlns="http://www.w3.org/2000/svg">
<path d="M54.6823 30.7917H42.151C42.0937 30.3594 42.0156 29.9323 41.9219 29.5104C51.9375 23.1354 50.1302 14.7552 50.0469 14.3854C49.8229 13.4115 48.8489 12.8073 47.875 13.026C46.8958 13.2396 46.276 14.2135 46.4844 15.1927C46.5364 15.4531 47.6406 21.1458 40.6041 26C38.4271 21.974 34.3229 19.1302 29.5364 18.7135V1.28125C29.5364 0.609374 28.9896 0.0625 28.3177 0.0625C27.6458 0.0625 27.0989 0.609374 27.0989 1.28125V18.7135C22.3125 19.1302 18.2083 21.974 16.0312 26C9.01562 21.1563 10.0885 15.4844 10.151 15.1979C10.3698 14.2188 9.76041 13.2448 8.78125 13.0208C7.79687 12.7917 6.8125 13.401 6.58854 14.3854C6.5 14.7552 4.69792 23.1354 14.7135 29.5104C14.6146 29.9323 14.5416 30.3594 14.4844 30.7917H1.95312C0.942708 30.7917 0.125 31.6094 0.125 32.6198C0.125 33.625 0.942708 34.4427 1.95312 34.4427H14.4844C14.6927 36.026 15.1614 37.5208 15.8541 38.8906C12.3594 39.7917 7.77604 41.6354 2.95833 45.4219C2.16666 46.0469 2.03125 47.1979 2.65625 47.9896C3.01562 48.4479 3.55208 48.6875 4.08854 48.6875C4.48437 48.6875 4.88541 48.5573 5.21875 48.2969C10.2239 44.3646 14.9479 42.7708 18.1198 42.1302C18.7396 42.7969 19.4219 43.401 20.1614 43.9323C16.9583 46.5938 9.80208 53.6042 6.47916 65.4219C6.20312 66.3906 6.77083 67.4011 7.73958 67.6771C7.90625 67.724 8.07291 67.7448 8.23958 67.7448C9.03646 67.7448 9.76562 67.2188 9.99479 66.4115C13.7083 53.224 22.8177 46.4375 23.7239 45.7969C23.75 45.8021 23.7708 45.8125 23.7969 45.8229C21.9427 47.2031 20.7396 49.4063 20.7396 51.8906C20.7396 56.0729 24.1354 59.474 28.3177 59.474C32.4948 59.474 35.8958 56.0729 35.8958 51.8906C35.8958 49.4063 34.6875 47.2031 32.8333 45.8229C32.8594 45.8125 32.8854 45.8021 32.9114 45.7969C33.8021 46.4219 42.9062 53.151 46.6406 66.4115C46.8646 67.2188 47.5989 67.7448 48.3958 67.7448C48.5625 67.7448 48.7291 67.724 48.8958 67.6771C49.8646 67.4011 50.4323 66.3906 50.1562 65.4219C46.8281 53.6094 39.6771 46.5938 36.4739 43.9323C37.2135 43.401 37.8958 42.7969 38.5156 42.1302C41.6875 42.7708 46.4114 44.3594 51.4166 48.2969C51.75 48.5573 52.1458 48.6875 52.5416 48.6875C53.0833 48.6875 53.6198 48.4479 53.9791 47.9896C54.6041 47.1979 54.4687 46.0469 53.6719 45.4219C48.8594 41.6354 44.276 39.7865 40.7812 38.8906C41.4739 37.5208 41.9427 36.026 42.151 34.4427H54.6823C55.6927 34.4427 56.5104 33.625 56.5104 32.6198C56.5104 31.6094 55.6927 30.7917 54.6823 30.7917Z" fill="#B3AAFF"/>
</svg>
