<svg width="255" height="70" viewBox="0 0 255 70" fill="none" xmlns="http://www.w3.org/2000/svg">
<path d="M54.6823 30.7917H42.151C42.0937 30.3594 42.0156 29.9323 41.9219 29.5104C51.9375 23.1354 50.1302 14.7552 50.0469 14.3854C49.8229 13.4115 48.8489 12.8073 47.875 13.026C46.8958 13.2396 46.276 14.2135 46.4844 15.1927C46.5364 15.4531 47.6406 21.1458 40.6041 26C38.4271 21.974 34.3229 19.1302 29.5364 18.7135V1.28125C29.5364 0.609374 28.9896 0.0625 28.3177 0.0625C27.6458 0.0625 27.0989 0.609374 27.0989 1.28125V18.7135C22.3125 19.1302 18.2083 21.974 16.0312 26C9.0156 21.1563 10.0885 15.4844 10.151 15.1979C10.3698 14.2188 9.76039 13.2448 8.78123 13.0208C7.79685 12.7917 6.81248 13.401 6.58852 14.3854C6.49998 14.7552 4.6979 23.1354 14.7135 29.5104C14.6146 29.9323 14.5416 30.3594 14.4844 30.7917H1.9531C0.942685 30.7917 0.124977 31.6094 0.124977 32.6198C0.124977 33.625 0.942685 34.4427 1.9531 34.4427H14.4844C14.6927 36.026 15.1614 37.5208 15.8541 38.8906C12.3594 39.7917 7.77602 41.6354 2.95831 45.4219C2.16664 46.0469 2.03123 47.1979 2.65623 47.9896C3.0156 48.4479 3.55206 48.6875 4.08852 48.6875C4.48435 48.6875 4.88539 48.5573 5.21873 48.2969C10.2239 44.3646 14.9479 42.7708 18.1198 42.1302C18.7396 42.7969 19.4219 43.401 20.1614 43.9323C16.9583 46.5938 9.80206 53.6042 6.47914 65.4219C6.2031 66.3906 6.77081 67.4011 7.73956 67.6771C7.90623 67.724 8.07289 67.7448 8.23956 67.7448C9.03644 67.7448 9.7656 67.2188 9.99477 66.4115C13.7083 53.224 22.8177 46.4375 23.7239 45.7969C23.75 45.8021 23.7708 45.8125 23.7969 45.8229C21.9427 47.2031 20.7396 49.4063 20.7396 51.8906C20.7396 56.0729 24.1354 59.474 28.3177 59.474C32.4948 59.474 35.8958 56.0729 35.8958 51.8906C35.8958 49.4063 34.6875 47.2031 32.8333 45.8229C32.8594 45.8125 32.8854 45.8021 32.9114 45.7969C33.8021 46.4219 42.9062 53.151 46.6406 66.4115C46.8646 67.2188 47.5989 67.7448 48.3958 67.7448C48.5625 67.7448 48.7291 67.724 48.8958 67.6771C49.8646 67.4011 50.4323 66.3906 50.1562 65.4219C46.8281 53.6094 39.6771 46.5938 36.4739 43.9323C37.2135 43.401 37.8958 42.7969 38.5156 42.1302C41.6875 42.7708 46.4114 44.3594 51.4166 48.2969C51.75 48.5573 52.1458 48.6875 52.5416 48.6875C53.0833 48.6875 53.6198 48.4479 53.9791 47.9896C54.6041 47.1979 54.4687 46.0469 53.6719 45.4219C48.8594 41.6354 44.276 39.7865 40.7812 38.8906C41.4739 37.5208 41.9427 36.026 42.151 34.4427H54.6823C55.6927 34.4427 56.5104 33.625 56.5104 32.6198C56.5104 31.6094 55.6927 30.7917 54.6823 30.7917Z" fill="#B3AAFF"/>
<path d="M109.328 4.48228C109.453 4.58124 109.557 4.6854 109.64 4.79478C109.765 4.91978 109.859 5.03957 109.932 5.14895C110 5.28957 110.046 5.4354 110.078 5.58645C110.104 5.72707 110.119 5.87811 110.119 6.04478C110.13 6.07603 110.14 6.09686 110.14 6.10728C110.14 6.16457 110.13 6.21145 110.119 6.25311C110.088 6.32603 110.078 6.39895 110.078 6.48228C110.005 6.76353 108.958 10.8729 106.932 18.8156C104.916 26.7635 103.88 30.8052 103.828 30.9406C102.854 34.7739 101.369 40.4927 99.3693 48.0864C99.2964 48.2427 99.2287 48.3729 99.161 48.4823C99.0881 48.6229 98.9943 48.7427 98.8693 48.8364C98.7547 48.9354 98.6402 49.0187 98.5152 49.0864C98.3745 49.1594 98.2339 49.2219 98.0985 49.2739C98.0256 49.3052 97.9579 49.3156 97.8902 49.3156H95.4527C95.286 49.3156 95.1297 49.2896 94.9943 49.2323C94.8537 49.1906 94.7235 49.1385 94.5985 49.0656C94.4579 48.9719 94.3381 48.8729 94.2443 48.7739L93.9527 48.4198C93.911 48.3521 93.8745 48.2844 93.8485 48.2114L93.786 47.9823C93.4527 46.6802 92.937 44.7271 92.2443 42.1281C91.8797 43.4614 91.3589 45.451 90.6818 48.0864C90.6245 48.2427 90.5464 48.3729 90.4527 48.4823C90.3797 48.6229 90.2912 48.7427 90.1818 48.8364C90.0829 48.9354 89.9631 49.0187 89.8277 49.0864C89.6714 49.1594 89.5256 49.2219 89.3902 49.2739C89.3172 49.3052 89.2495 49.3156 89.1818 49.3156H86.8902C86.7235 49.3156 86.5672 49.2896 86.4318 49.2323C86.2912 49.1906 86.161 49.1385 86.036 49.0656C85.8954 48.9719 85.7756 48.8729 85.6818 48.7739L85.3902 48.4198C85.3485 48.3521 85.312 48.2844 85.286 48.2114L85.2235 47.9823C83.8902 42.9406 81.8693 35.3781 79.161 25.2948C79.1297 25.1594 79.1193 25.0031 79.1193 24.8364V24.7948C79.1193 24.6594 79.1297 24.5344 79.161 24.4198C79.2027 24.2687 79.2547 24.1229 79.3277 23.9823C79.3954 23.8469 79.4787 23.7271 79.5777 23.6281C79.7027 23.5031 79.8172 23.4094 79.9318 23.3364C80.0829 23.2687 80.2131 23.201 80.3277 23.1281C80.3954 23.0864 80.4787 23.0656 80.5777 23.0656C80.6454 23.0656 80.7131 23.0552 80.786 23.0239H81.036C81.187 23.0552 81.3485 23.0864 81.5152 23.1281C81.6506 23.1698 81.786 23.2323 81.911 23.3156C82.0204 23.3989 82.1245 23.5031 82.2235 23.6281C82.3485 23.7531 82.4422 23.8729 82.5152 23.9823C82.5568 24.0396 82.5881 24.1021 82.6193 24.1698C82.6454 24.2687 82.6662 24.3521 82.6818 24.4198C83.8485 28.7687 85.6089 35.3156 87.9735 44.0656C88.5152 41.9562 89.3329 38.7948 90.4318 34.5864C90.4735 34.4354 90.4787 34.326 90.4527 34.2531C90.4527 34.1854 90.4943 34.1489 90.5777 34.1489C90.6454 34.1489 90.6662 34.201 90.6402 34.2948C90.6089 34.3937 90.6089 34.4927 90.6402 34.5864C90.6089 34.4354 90.6089 34.3364 90.6402 34.2948C90.6662 34.2271 90.6454 34.1802 90.5777 34.1489C90.5204 34.1229 90.4943 34.1437 90.4943 34.2114C90.4631 34.3104 90.4422 34.3937 90.4318 34.4614C90.4735 34.326 90.5047 34.2427 90.536 34.2114C90.536 34.1698 90.5672 34.1281 90.6402 34.0864C90.6818 34.0344 90.6818 34.0552 90.6402 34.1489C90.5672 34.2479 90.5204 34.3312 90.4943 34.3989C90.5464 34.2635 90.5829 34.1802 90.5985 34.1489C90.6245 34.1073 90.6506 34.0448 90.6818 33.9614C90.6818 33.951 90.6662 33.9771 90.6402 34.0448C90.6089 34.0864 90.5881 34.1437 90.5777 34.2114C90.6454 34.076 90.7131 33.951 90.786 33.8364C90.8797 33.6854 90.9839 33.5604 91.0985 33.4614C91.2235 33.3781 91.3537 33.3104 91.4943 33.2531C91.6297 33.1854 91.7756 33.1385 91.9318 33.1073C92.0672 33.0969 92.2235 33.0864 92.3902 33.0864C92.5256 33.1021 92.6662 33.1385 92.8068 33.1906C92.9579 33.2323 93.1037 33.2896 93.2443 33.3573C93.3693 33.4562 93.4735 33.5656 93.5568 33.6906C93.6818 33.7896 93.7652 33.9094 93.8068 34.0448C93.8745 34.1854 93.937 34.326 93.9943 34.4614C94.036 34.5448 94.0568 34.6229 94.0568 34.6906V34.8989C94.0568 34.9302 94.0568 34.9354 94.0568 34.9198C94.0568 34.9094 94.0568 34.8781 94.0568 34.8364C94.0412 34.7114 94.036 34.6021 94.036 34.5031C94.0464 34.6437 94.0464 34.7427 94.036 34.7948C94.036 34.8364 94.0412 34.8937 94.0568 34.9614C94.6245 37.0344 95.4735 40.1646 96.5985 44.3573C97.4318 41.1646 98.6662 36.3937 100.307 30.0448V30.0031C101.708 24.5604 103.791 16.4094 106.557 5.54478C106.598 5.40936 106.651 5.26874 106.723 5.12811C106.791 4.97707 106.875 4.85207 106.973 4.75311C107.098 4.64374 107.213 4.5552 107.328 4.48228L107.765 4.25311L107.973 4.19061H108.182C108.515 4.22186 108.744 4.25311 108.869 4.29478C109.005 4.32603 109.161 4.38853 109.328 4.48228Z" fill="#B3AAFF"/>
<path d="M126.38 24.7948C127.015 25.2948 127.525 25.8469 127.9 26.4406C128.301 27.0396 128.505 27.7219 128.505 28.4823V43.5656C128.505 44.3989 128.301 45.201 127.9 45.9614C127.525 46.701 126.989 47.326 126.296 47.8364C125.63 48.3364 124.869 48.7219 124.025 48.9823C123.135 49.2479 122.182 49.3781 121.171 49.3781C120.364 49.3781 119.531 49.2948 118.671 49.1281C117.838 48.9354 117.051 48.6177 116.317 48.1698C115.578 47.7427 114.947 47.1229 114.421 46.3156C113.906 45.5135 113.65 44.5969 113.65 43.5656V28.4823C113.65 27.6489 113.869 26.8885 114.317 26.1906C114.744 25.4823 115.307 24.8989 116.005 24.4406C116.671 24.0239 117.426 23.6906 118.275 23.4406C119.135 23.2323 120.067 23.1281 121.067 23.1281C122.176 23.1281 123.182 23.2844 124.088 23.5864C124.989 23.9094 125.755 24.3104 126.38 24.7948ZM117.984 27.5239C117.676 27.7062 117.489 27.8781 117.421 28.0448C117.322 28.201 117.275 28.3469 117.275 28.4823V43.5656C117.275 43.9719 117.343 44.2687 117.484 44.4614C117.635 44.6437 117.88 44.8469 118.213 45.0656C118.557 45.2739 118.994 45.4406 119.525 45.5656C120.051 45.6802 120.598 45.7323 121.171 45.7323C121.88 45.7323 122.468 45.6489 122.942 45.4823C123.442 45.3469 123.822 45.1698 124.088 44.9614C124.38 44.7427 124.578 44.5239 124.692 44.3156C124.817 44.0812 124.88 43.8312 124.88 43.5656V28.4823C124.88 28.6229 124.828 28.5864 124.734 28.3781C124.661 28.1437 124.473 27.8989 124.171 27.6489C123.848 27.4146 123.442 27.2114 122.942 27.0448C122.426 26.8677 121.801 26.7739 121.067 26.7739C120.343 26.7739 119.723 26.8469 119.213 26.9823C118.682 27.1489 118.275 27.3312 117.984 27.5239Z" fill="#B3AAFF"/>
<path d="M145.422 23.0656C145.588 23.0812 145.682 23.0864 145.713 23.0864C145.755 23.0864 145.807 23.1021 145.88 23.1281C147.713 23.5344 149.078 24.3312 149.984 25.5239C150.885 26.6906 151.359 27.7844 151.401 28.7948C151.453 28.9354 151.495 29.0344 151.526 29.0864V29.2323C151.536 30.1073 151.547 31.4302 151.547 33.1906C151.547 33.3312 151.536 33.4198 151.526 33.4614V33.6073C151.468 34.3729 151.307 35.1021 151.047 35.7948C150.765 36.4771 150.38 37.1177 149.88 37.7114C149.588 38.0187 149.265 38.3052 148.922 38.5656C148.557 38.8312 148.161 39.0604 147.734 39.2531C148.093 40.0604 148.614 41.1802 149.297 42.6073C149.963 44.0239 150.338 44.8104 150.422 44.9614L160.463 67.1073C160.531 67.2427 160.593 67.3833 160.651 67.5239C160.692 67.675 160.713 67.8208 160.713 67.9614V68.0239C160.713 68.1489 160.703 68.2792 160.692 68.4198C160.661 68.5552 160.614 68.701 160.547 68.8573C160.474 68.9667 160.39 69.0864 160.297 69.2114C160.172 69.3208 160.052 69.425 159.942 69.5239C159.817 69.5917 159.682 69.6698 159.547 69.7531C159.39 69.7948 159.239 69.826 159.088 69.8573H158.901C158.802 69.8573 158.718 69.8417 158.651 69.8156C158.484 69.7844 158.328 69.7531 158.192 69.7114C158.036 69.6542 157.922 69.5708 157.838 69.4614L157.463 69.1698C157.422 69.0969 157.38 69.0448 157.338 69.0031C157.307 68.9198 157.265 68.8417 157.213 68.7739C154.989 63.826 151.614 56.3989 147.088 46.4823V46.4614C146.38 44.9614 145.338 42.7271 143.963 39.7531H139.755C139.755 41.4354 139.739 43.9771 139.713 47.3781C139.739 47.5187 139.739 47.6646 139.713 47.8156C139.682 47.9823 139.651 48.1385 139.609 48.2739C139.536 48.3885 139.453 48.5187 139.359 48.6698C139.26 48.7844 139.151 48.8885 139.026 48.9823C138.911 49.0812 138.786 49.1489 138.651 49.1906C138.495 49.2739 138.349 49.326 138.213 49.3364C138.073 49.3677 137.922 49.3677 137.755 49.3364C137.614 49.3364 137.468 49.3156 137.317 49.2739C137.177 49.2219 137.036 49.1489 136.901 49.0656C136.776 48.9719 136.661 48.8729 136.567 48.7739C136.468 48.6489 136.385 48.5187 136.317 48.3781C136.245 48.2427 136.192 48.1021 136.151 47.9614C136.12 47.8781 136.109 47.8052 136.109 47.7323V47.5239C136.109 42.4146 136.12 34.7323 136.151 24.4823L136.297 24.0656C136.364 23.9146 136.448 23.7844 136.547 23.6698C136.63 23.576 136.745 23.4771 136.901 23.3781C137.01 23.3104 137.14 23.2427 137.297 23.1698C137.364 23.1437 137.468 23.1177 137.609 23.0864C137.718 23.076 137.765 23.0656 137.755 23.0656H137.713C137.682 23.0656 137.682 23.0656 137.713 23.0656C137.739 23.0656 137.76 23.0656 137.776 23.0656H145.422ZM139.755 36.0656H145.484C145.817 36.0656 146.114 36.0135 146.38 35.8989C146.64 35.7635 146.88 35.576 147.088 35.3364C147.323 35.076 147.515 34.7739 147.672 34.4406C147.807 34.0812 147.88 33.7531 147.88 33.4614V29.3989C147.838 28.8885 147.656 28.3781 147.338 27.8781C147.031 27.3781 146.323 26.9823 145.213 26.6906H139.755V36.0656Z" fill="#B3AAFF"/>
<path d="M169.172 23.0656C169.339 23.0656 169.432 23.076 169.464 23.0864H169.63C170.422 23.2844 171.12 23.5812 171.734 23.9823C172.359 24.3729 172.87 24.8364 173.276 25.3781C173.703 25.9094 174.01 26.4562 174.193 27.0239C174.411 27.6073 174.573 28.1646 174.672 28.6906C174.682 28.8312 174.703 28.9302 174.734 28.9823V43.8156C174.734 43.8469 174.719 43.9094 174.693 44.0031C174.594 44.9771 174.323 45.8312 173.88 46.5656C173.448 47.3312 172.911 47.9198 172.276 48.3364C171.635 48.7427 170.984 49.0031 170.318 49.1281C169.651 49.2687 169.016 49.3364 168.422 49.3364C166.755 49.326 164.281 49.3156 161.005 49.3156C160.839 49.3312 160.682 49.3312 160.547 49.3156C160.391 49.3156 160.245 49.2896 160.109 49.2323C159.969 49.1906 159.828 49.1229 159.693 49.0239C159.568 48.9562 159.443 48.8573 159.318 48.7323C159.234 48.6385 159.151 48.5187 159.068 48.3781C159.026 48.2427 158.969 48.1021 158.901 47.9614C158.87 47.8781 158.859 47.8052 158.859 47.7323V26.6906H152.547C152.411 26.6802 152.271 26.6437 152.13 26.5864C151.979 26.5448 151.833 26.4927 151.693 26.4198C151.583 26.326 151.479 26.2114 151.38 26.0864C151.286 25.9927 151.203 25.8729 151.13 25.7323C151.063 25.5969 151 25.451 150.943 25.2948C150.917 25.1594 150.901 25.0187 150.901 24.8781V24.8364C150.901 24.701 150.932 24.5448 150.984 24.3781C151.016 24.2427 151.068 24.1073 151.151 23.9823C151.234 23.8469 151.318 23.7271 151.401 23.6281C151.526 23.5031 151.651 23.4094 151.776 23.3364L152.193 23.1281C152.266 23.1021 152.37 23.0812 152.505 23.0656C152.563 23.0656 152.609 23.0656 152.651 23.0656C152.682 23.0656 152.682 23.0656 152.651 23.0656H152.63C152.604 23.0656 152.604 23.0656 152.63 23.0656C152.646 23.0656 152.667 23.0656 152.693 23.0656H169.172ZM162.505 45.6698H168.422C168.823 45.6698 169.193 45.6489 169.526 45.6073C169.828 45.5239 170.078 45.4302 170.276 45.3156C170.469 45.1802 170.635 44.9979 170.776 44.7739C170.911 44.5396 171.016 44.1229 171.089 43.5239V29.3989C171.016 28.9979 170.927 28.6437 170.818 28.3364C170.693 28.0344 170.557 27.7687 170.422 27.5448C170.281 27.3677 170.089 27.201 169.839 27.0448C169.63 26.9354 169.323 26.8156 168.922 26.6906H162.505V45.6698Z" fill="#B3AAFF"/>
<path d="M212.359 4.48228C212.484 4.58124 212.588 4.6854 212.671 4.79478C212.796 4.91978 212.89 5.03957 212.963 5.14895C213.03 5.28957 213.077 5.4354 213.109 5.58645C213.135 5.72707 213.15 5.87811 213.15 6.04478C213.161 6.07603 213.171 6.09686 213.171 6.10728C213.171 6.16457 213.161 6.21145 213.15 6.25311C213.119 6.32603 213.109 6.39895 213.109 6.48228C213.036 6.76353 211.989 10.8729 209.963 18.8156C207.947 26.7635 206.911 30.8052 206.859 30.9406C205.885 34.7739 204.4 40.4927 202.4 48.0864C202.327 48.2427 202.26 48.3729 202.192 48.4823C202.119 48.6229 202.025 48.7427 201.9 48.8364C201.786 48.9354 201.671 49.0187 201.546 49.0864C201.405 49.1594 201.265 49.2219 201.129 49.2739C201.057 49.3052 200.989 49.3156 200.921 49.3156H198.484C198.317 49.3156 198.161 49.2896 198.025 49.2323C197.885 49.1906 197.754 49.1385 197.629 49.0656C197.489 48.9719 197.369 48.8729 197.275 48.7739L196.984 48.4198C196.942 48.3521 196.905 48.2844 196.879 48.2114L196.817 47.9823C196.484 46.6802 195.968 44.7271 195.275 42.1281C194.911 43.4614 194.39 45.451 193.713 48.0864C193.655 48.2427 193.577 48.3729 193.484 48.4823C193.411 48.6229 193.322 48.7427 193.213 48.8364C193.114 48.9354 192.994 49.0187 192.859 49.0864C192.702 49.1594 192.557 49.2219 192.421 49.2739C192.348 49.3052 192.28 49.3156 192.213 49.3156H189.921C189.754 49.3156 189.598 49.2896 189.463 49.2323C189.322 49.1906 189.192 49.1385 189.067 49.0656C188.926 48.9719 188.807 48.8729 188.713 48.7739L188.421 48.4198C188.379 48.3521 188.343 48.2844 188.317 48.2114L188.254 47.9823C186.921 42.9406 184.9 35.3781 182.192 25.2948C182.161 25.1594 182.15 25.0031 182.15 24.8364V24.7948C182.15 24.6594 182.161 24.5344 182.192 24.4198C182.234 24.2687 182.286 24.1229 182.359 23.9823C182.426 23.8469 182.51 23.7271 182.609 23.6281C182.734 23.5031 182.848 23.4094 182.963 23.3364C183.114 23.2687 183.244 23.201 183.359 23.1281C183.426 23.0864 183.51 23.0656 183.609 23.0656C183.676 23.0656 183.744 23.0552 183.817 23.0239H184.067C184.218 23.0552 184.379 23.0864 184.546 23.1281C184.682 23.1698 184.817 23.2323 184.942 23.3156C185.051 23.3989 185.155 23.5031 185.254 23.6281C185.379 23.7531 185.473 23.8729 185.546 23.9823C185.588 24.0396 185.619 24.1021 185.65 24.1698C185.676 24.2687 185.697 24.3521 185.713 24.4198C186.879 28.7687 188.64 35.3156 191.004 44.0656C191.546 41.9562 192.364 38.7948 193.463 34.5864C193.504 34.4354 193.51 34.326 193.484 34.2531C193.484 34.1854 193.525 34.1489 193.609 34.1489C193.676 34.1489 193.697 34.201 193.671 34.2948C193.64 34.3937 193.64 34.4927 193.671 34.5864C193.64 34.4354 193.64 34.3364 193.671 34.2948C193.697 34.2271 193.676 34.1802 193.609 34.1489C193.551 34.1229 193.525 34.1437 193.525 34.2114C193.494 34.3104 193.473 34.3937 193.463 34.4614C193.504 34.326 193.536 34.2427 193.567 34.2114C193.567 34.1698 193.598 34.1281 193.671 34.0864C193.713 34.0344 193.713 34.0552 193.671 34.1489C193.598 34.2479 193.551 34.3312 193.525 34.3989C193.577 34.2635 193.614 34.1802 193.629 34.1489C193.655 34.1073 193.682 34.0448 193.713 33.9614C193.713 33.951 193.697 33.9771 193.671 34.0448C193.64 34.0864 193.619 34.1437 193.609 34.2114C193.676 34.076 193.744 33.951 193.817 33.8364C193.911 33.6854 194.015 33.5604 194.129 33.4614C194.254 33.3781 194.385 33.3104 194.525 33.2531C194.661 33.1854 194.807 33.1385 194.963 33.1073C195.098 33.0969 195.254 33.0864 195.421 33.0864C195.557 33.1021 195.697 33.1385 195.838 33.1906C195.989 33.2323 196.135 33.2896 196.275 33.3573C196.4 33.4562 196.504 33.5656 196.588 33.6906C196.713 33.7896 196.796 33.9094 196.838 34.0448C196.905 34.1854 196.968 34.326 197.025 34.4614C197.067 34.5448 197.088 34.6229 197.088 34.6906V34.8989C197.088 34.9302 197.088 34.9354 197.088 34.9198C197.088 34.9094 197.088 34.8781 197.088 34.8364C197.072 34.7114 197.067 34.6021 197.067 34.5031C197.077 34.6437 197.077 34.7427 197.067 34.7948C197.067 34.8364 197.072 34.8937 197.088 34.9614C197.655 37.0344 198.504 40.1646 199.629 44.3573C200.463 41.1646 201.697 36.3937 203.338 30.0448V30.0031C204.739 24.5604 206.822 16.4094 209.588 5.54478C209.629 5.40936 209.682 5.26874 209.754 5.12811C209.822 4.97707 209.905 4.85207 210.004 4.75311C210.129 4.64374 210.244 4.5552 210.359 4.48228L210.796 4.25311L211.004 4.19061H211.213C211.546 4.22186 211.775 4.25311 211.9 4.29478C212.036 4.32603 212.192 4.38853 212.359 4.48228Z" fill="#B3AAFF"/>
<path d="M238.931 23.0656C239.4 23.0656 239.827 23.2427 240.202 23.5864C240.588 23.9771 240.786 24.4094 240.786 24.8781C240.786 25.3521 240.588 25.7844 240.202 26.1698C239.827 26.5448 239.4 26.7219 238.931 26.6906H220.161V34.2114H226.723C227.207 34.2114 227.64 34.3937 228.015 34.7531C228.374 35.1437 228.556 35.576 228.556 36.0448C228.556 36.5187 228.374 36.9406 228.015 37.3156C227.64 37.6802 227.207 37.8573 226.723 37.8573H220.161V45.6698H229.015C229.484 45.6698 229.916 45.8573 230.306 46.2323C230.681 46.5969 230.869 47.0239 230.869 47.5239C230.869 47.9979 230.681 48.4146 230.306 48.7739C229.942 49.1385 229.525 49.326 229.056 49.3364H218.348C217.874 49.3364 217.457 49.1489 217.098 48.7739C216.723 48.4146 216.536 47.9979 216.536 47.5239V24.8781C216.536 24.4198 216.702 24.0187 217.036 23.6698C217.338 23.3104 217.713 23.1073 218.161 23.0656H238.931Z" fill="#B3AAFF"/>
<path d="M246.032 23.0656C248.141 23.0656 249.834 23.7739 251.115 25.1906C252.433 26.6229 253.178 28.1906 253.345 29.8989C253.428 30.7635 253.376 31.6229 253.199 32.4823C253.032 33.3312 252.699 34.1385 252.199 34.8989C252.1 35.0656 251.97 35.2114 251.803 35.3364C251.636 35.4771 251.48 35.6177 251.345 35.7531L251.99 36.1906C252.225 36.3052 252.428 36.4562 252.595 36.6489C253.178 37.3573 253.615 38.1594 253.907 39.0448C254.199 39.951 254.345 40.8521 254.345 41.7531C254.345 42.6594 254.209 43.5604 253.949 44.4614C253.657 45.3364 253.204 46.1437 252.595 46.8781C251.996 47.6177 251.22 48.2114 250.261 48.6698C249.313 49.1177 248.272 49.3364 247.136 49.3364C245.537 49.3364 243.136 49.3312 239.928 49.3156C239.787 49.3312 239.636 49.3364 239.47 49.3364C239.313 49.326 239.167 49.2896 239.032 49.2323C238.891 49.1906 238.751 49.1385 238.615 49.0656L238.24 48.7739C238.157 48.6489 238.074 48.5187 237.99 48.3781C237.949 48.2427 237.891 48.1021 237.824 47.9614C237.792 47.9094 237.782 47.8312 237.782 47.7323V37.9614H233.761C233.61 37.9614 233.449 37.951 233.282 37.9198C233.147 37.9094 233.006 37.8729 232.865 37.8156C232.73 37.7479 232.595 37.6646 232.47 37.5656C232.36 37.4823 232.256 37.3781 232.157 37.2531C232.063 37.1281 231.98 36.9979 231.907 36.8573C231.855 36.7219 231.818 36.5812 231.803 36.4406C231.777 36.3469 231.761 36.2479 231.761 36.1489V35.9614C231.792 35.826 231.824 35.6854 231.865 35.5448C231.907 35.4094 231.98 35.2739 232.074 35.1489C232.147 35.0135 232.24 34.8937 232.365 34.7948C232.49 34.701 232.61 34.6177 232.72 34.5448C232.86 34.4771 233.006 34.4146 233.157 34.3573C233.23 34.3469 233.298 34.3364 233.365 34.3364H237.782C237.782 32.1437 237.792 28.8573 237.824 24.4823L237.97 24.0656C238.037 23.9146 238.121 23.7896 238.22 23.6906C238.329 23.5812 238.449 23.4771 238.574 23.3781C238.709 23.3104 238.845 23.2427 238.97 23.1698C239.037 23.1437 239.141 23.1177 239.282 23.0864L239.47 23.0656H239.428C239.371 23.0812 239.386 23.0812 239.47 23.0656H246.032ZM241.428 34.3364H246.949C247.516 34.2114 247.97 34.0344 248.303 33.7948C248.636 33.5604 248.917 33.2635 249.157 32.8989C249.376 32.5396 249.542 32.1385 249.657 31.6906C249.709 31.3989 249.74 31.0864 249.74 30.7531V30.2948C249.615 29.326 249.266 28.4823 248.699 27.7739C248.1 27.0812 247.209 26.7323 246.032 26.7323H241.428V34.3364ZM241.428 45.7114H247.136C247.803 45.7114 248.334 45.6021 248.74 45.3781C249.141 45.201 249.496 44.9302 249.803 44.5656C250.095 44.2062 250.324 43.7739 250.49 43.2739C250.626 42.7739 250.699 42.2687 250.699 41.7531C250.699 41.2271 250.615 40.7114 250.449 40.2114C250.308 39.7427 250.095 39.3364 249.803 39.0031C249.522 38.6698 249.204 38.4094 248.845 38.2114C248.454 38.0187 248.037 37.9198 247.595 37.9198C247.428 37.951 247.329 37.9614 247.303 37.9614H247.136C247.063 37.9614 247.084 37.951 247.199 37.9198C247.324 37.9198 247.433 37.9146 247.532 37.8989C247.365 37.9406 247.266 37.9614 247.24 37.9614H241.428V45.7114Z" fill="#B3AAFF"/>
</svg>
