<svg width="37" height="43" viewBox="0 0 37 43" fill="none" xmlns="http://www.w3.org/2000/svg">
<g filter="url(#filter0_d_24_23)">
<path d="M32.0598 15.8907H25.6147C25.5852 15.6672 25.5451 15.4463 25.4969 15.2282C30.6481 11.9315 29.7186 7.59792 29.6757 7.40669C29.5605 6.90306 29.0596 6.59062 28.5587 6.70371C28.055 6.81417 27.7363 7.31779 27.8435 7.82416C27.8702 7.95882 28.4381 10.9026 24.8191 13.4128C23.6994 11.3309 21.5886 9.86032 19.1268 9.64484V0.630242C19.1268 0.282801 18.8456 0 18.5 0C18.1544 0 17.8732 0.282801 17.8732 0.630242V9.64484C15.4114 9.86032 13.3006 11.3309 12.1808 13.4128C8.5726 10.9081 9.12441 7.975 9.15656 7.82685C9.26909 7.32053 8.95566 6.81686 8.45206 6.70102C7.94578 6.58255 7.4395 6.89763 7.32431 7.40669C7.27877 7.59792 6.35193 11.9315 11.5031 15.2282C11.4523 15.4463 11.4147 15.6672 11.3853 15.8907H4.94024C4.42056 15.8907 4 16.3136 4 16.8361C4 17.3559 4.42056 17.7788 4.94024 17.7788H11.3853C11.4924 18.5975 11.7335 19.3705 12.0898 20.0789C10.2924 20.5448 7.93506 21.4983 5.45723 23.4563C5.05006 23.7795 4.98042 24.3747 5.30187 24.7842C5.4867 25.0212 5.76261 25.1451 6.03852 25.1451C6.2421 25.1451 6.44836 25.0777 6.61981 24.9431C9.19405 22.9096 11.6237 22.0854 13.255 21.7541C13.5738 22.0989 13.9247 22.4113 14.3051 22.686C12.6577 24.0624 8.97709 27.6876 7.26806 33.7988C7.12608 34.2997 7.41807 34.8223 7.91631 34.965C8.00203 34.9892 8.08775 35 8.17347 35C8.58332 35 8.95834 34.728 9.07621 34.3105C10.9861 27.491 15.6713 23.9815 16.1373 23.6503C16.1508 23.653 16.1615 23.6583 16.1749 23.6637C15.2212 24.3774 14.6025 25.5168 14.6025 26.8014C14.6025 28.9642 16.349 30.723 18.5 30.723C20.6484 30.723 22.3976 28.9642 22.3976 26.8014C22.3976 25.5168 21.7761 24.3774 20.8225 23.6637C20.8359 23.6583 20.8493 23.653 20.8626 23.6503C21.3207 23.9735 26.0031 27.4532 27.9238 34.3105C28.039 34.728 28.4167 35 28.8265 35C28.9123 35 28.9979 34.9892 29.0837 34.965C29.582 34.8223 29.8739 34.2997 29.7319 33.7988C28.0202 27.6903 24.3423 24.0624 22.6949 22.686C23.0753 22.4113 23.4262 22.0989 23.745 21.7541C25.3763 22.0854 27.8059 22.9069 30.3802 24.9431C30.5516 25.0777 30.7552 25.1451 30.9588 25.1451C31.2374 25.1451 31.5133 25.0212 31.6981 24.7842C32.0196 24.3747 31.9499 23.7795 31.5401 23.4563C29.065 21.4983 26.7076 20.5422 24.9102 20.0789C25.2665 19.3705 25.5076 18.5975 25.6147 17.7788H32.0598C32.5794 17.7788 33 17.3559 33 16.8361C33 16.3136 32.5794 15.8907 32.0598 15.8907Z" fill="#FAB31A"/>
</g>
<defs>
<filter id="filter0_d_24_23" x="0" y="0" width="37" height="43" filterUnits="userSpaceOnUse" color-interpolation-filters="sRGB">
<feFlood flood-opacity="0" result="BackgroundImageFix"/>
<feColorMatrix in="SourceAlpha" type="matrix" values="0 0 0 0 0 0 0 0 0 0 0 0 0 0 0 0 0 0 127 0" result="hardAlpha"/>
<feOffset dy="4"/>
<feGaussianBlur stdDeviation="2"/>
<feComposite in2="hardAlpha" operator="out"/>
<feColorMatrix type="matrix" values="0 0 0 0 0 0 0 0 0 0 0 0 0 0 0 0 0 0 0.25 0"/>
<feBlend mode="normal" in2="BackgroundImageFix" result="effect1_dropShadow_24_23"/>
<feBlend mode="normal" in="SourceGraphic" in2="effect1_dropShadow_24_23" result="shape"/>
</filter>
</defs>
</svg>
