<svg width="554" height="543" viewBox="0 0 554 543" fill="none" xmlns="http://www.w3.org/2000/svg">
<mask id="mask0_19_115" style="mask-type:luminance" maskUnits="userSpaceOnUse" x="23" y="33" width="531" height="351">
<path d="M23.2158 33.8809H553.446V383.152H23.2158V33.8809Z" fill="white"/>
</mask>
<g mask="url(#mask0_19_115)">
<path d="M25.4038 35.7074C83.7621 116.338 205.904 223.852 297.915 252.593C362.041 299.085 428.991 344.205 504.196 367.011C529.097 374.467 554.802 379.179 580.675 379.671C581.094 379.678 581.43 380.043 581.423 380.491C581.416 380.938 581.073 381.288 580.654 381.281C554.62 380.923 528.748 376.323 503.693 368.957C429.039 346.822 359.042 300.8 297.062 255.687C205.61 225.768 99.9666 131.502 37.5886 54.7411C32.9678 48.8439 28.4448 42.8646 24.1805 36.6617C23.9358 36.3039 24.0057 35.7969 24.3413 35.5285C24.6838 35.2676 25.1592 35.3421 25.4038 35.7074Z" fill="#B3AAFF" fill-opacity="0.25"/>
</g>
<path d="M116.772 26.4329C141.484 69.0928 167.762 110.798 196.83 150.23C218.69 179.597 241.857 208.241 269.134 232.001C278.243 239.814 287.842 247.024 298.181 252.697C298.502 252.876 298.74 253.167 298.88 253.495C343.026 359.116 417.945 451.496 512.005 509.634C512.369 509.85 512.494 510.342 512.292 510.73C512.082 511.117 511.621 511.259 511.257 511.035C416.512 453.099 340.915 360.697 296.098 254.785C296.098 254.777 296.797 255.575 296.797 255.575C286.227 249.685 276.517 242.312 267.345 234.35C222.129 193.77 186.973 142.238 153.613 90.6763C140.408 69.8905 127.727 48.7097 115.479 27.2754C115.262 26.8951 115.374 26.3956 115.731 26.1645C116.087 25.9334 116.556 26.0527 116.772 26.4329Z" fill="#B3AAFF" fill-opacity="0.25"/>
<mask id="mask1_19_115" style="mask-type:luminance" maskUnits="userSpaceOnUse" x="0" y="252" width="554" height="66">
<path d="M0.454102 252.258H553.446V317.88H0.454102V252.258Z" fill="white"/>
</mask>
<g mask="url(#mask1_19_115)">
<path d="M-39.9871 306.324C58.0644 326.819 212.566 313.563 296.622 252.817C297.048 252.496 297.601 252.444 298.048 252.638C372.17 283.578 451.305 300.42 530.6 306.429C557.081 308.248 583.695 308.621 610.182 306.719C610.602 306.69 610.958 307.025 610.986 307.472C611.014 307.912 610.707 308.3 610.287 308.33C583.723 310.38 557.046 310.134 530.482 308.442C450.879 302.813 371.478 286.321 296.922 255.635C296.922 255.642 298.363 255.456 298.356 255.463C220.906 310.619 94.1294 323.613 2.85191 314.727C-11.6188 313.221 -26.0406 311.036 -40.2947 307.905C-40.7071 307.815 -40.9658 307.39 -40.8819 306.951C-40.798 306.511 -40.3995 306.235 -39.9871 306.324Z" fill="#B3AAFF" fill-opacity="0.25"/>
</g>
<mask id="mask2_19_115" style="mask-type:luminance" maskUnits="userSpaceOnUse" x="25" y="180" width="529" height="238">
<path d="M25.0054 180.842H553.446V417.507H25.0054V180.842Z" fill="white"/>
</mask>
<g mask="url(#mask2_19_115)">
<path d="M25.7534 415.509C112.997 384.725 234.621 326.29 296.349 253.07C296.678 252.675 297.139 252.496 297.593 252.526C376.099 257.171 455.206 242.372 529.538 215.808C554.313 206.66 578.549 195.716 601.507 182.206C601.87 181.99 602.332 182.132 602.535 182.527C602.737 182.915 602.611 183.407 602.241 183.623C579.249 197.304 554.977 208.412 530.16 217.717C455.625 244.78 376.267 260.019 297.384 255.747C297.377 255.747 298.628 255.202 298.628 255.202C248.134 314.242 168.28 356.745 99.9247 387.991C75.7438 398.771 51.1995 408.605 26.2078 417.052C25.8093 417.186 25.3829 416.948 25.2571 416.523C25.1312 416.098 25.3549 415.643 25.7534 415.509Z" fill="#B3AAFF" fill-opacity="0.25"/>
</g>
<mask id="mask3_19_115" style="mask-type:luminance" maskUnits="userSpaceOnUse" x="157" y="110" width="397" height="433">
<path d="M157.437 110.224H553.446V542.639H157.437V110.224Z" fill="white"/>
</mask>
<g mask="url(#mask3_19_115)">
<path d="M157.801 588.914C174.739 564.013 189.86 537.726 204.163 511.013C232.531 457.483 257.579 401.716 276.013 343.393C285.108 314.287 292.532 284.428 295.986 253.95C296.077 253.249 296.559 252.72 297.167 252.556C300.411 251.721 308.618 249.618 311.743 248.813C317.307 247.151 325.465 244.757 330.981 242.901C396.281 220.669 458.435 188.804 518.583 153.988C542.037 140.255 565.134 125.806 587.707 110.478C588.057 110.232 588.525 110.344 588.749 110.716C588.98 111.097 588.875 111.596 588.525 111.835C565.987 127.305 542.925 141.888 519.499 155.755C472.592 183.399 424.377 208.658 374.477 229.608C360.055 235.729 344.2 241.619 329.443 246.644C324.892 248.068 317.028 250.52 312.505 251.862C309.38 252.675 301.033 254.874 297.81 255.717C297.81 255.717 298.999 254.323 298.992 254.338C295.391 285.046 287.8 315.04 278.53 344.295C254.957 417.209 221.793 486.365 183.401 551.608C175.655 564.625 167.581 577.433 159.024 589.876C158.772 590.234 158.297 590.309 157.961 590.048C157.626 589.779 157.549 589.272 157.801 588.914Z" fill="#B3AAFF" fill-opacity="0.25"/>
</g>
<mask id="mask4_19_115" style="mask-type:luminance" maskUnits="userSpaceOnUse" x="181" y="0" width="149" height="543">
<path d="M181.527 0.122742H329.443V542.639H181.527V0.122742Z" fill="white"/>
</mask>
<g mask="url(#mask4_19_115)">
<path d="M183.289 -69.8017C194.138 -12.805 208.553 43.4611 225.806 98.6237C241.423 146.406 258.124 194.821 285.549 236.489C289.547 242.305 293.847 247.889 298.565 252.996C298.88 253.346 299.027 253.816 298.999 254.271L298.272 265.543C297.216 281.073 296.881 297.959 296.643 313.549C296.433 384.233 301.32 455.03 311.645 524.865C316.147 554.642 321.718 584.277 329.24 613.353C329.352 613.778 329.115 614.233 328.709 614.345C328.304 614.464 327.891 614.218 327.779 613.786C312.617 555.484 304.409 495.386 299.138 435.236C295.776 395.767 293.902 356.015 293.881 316.367C293.93 299.734 294.28 281.923 295.294 265.334L295.979 254.002C295.979 254.002 296.419 255.292 296.405 255.27C249.567 201.538 218.822 86.9784 200.353 15.6151C193.404 -12.5589 186.987 -40.8821 181.807 -69.496C181.73 -69.9284 181.995 -70.3608 182.408 -70.4428C182.82 -70.5248 183.212 -70.2415 183.289 -69.8017Z" fill="#B3AAFF" fill-opacity="0.25"/>
</g>
<mask id="mask5_19_115" style="mask-type:luminance" maskUnits="userSpaceOnUse" x="295" y="0" width="232" height="258">
<path d="M295.238 0.122742H526.098V257.186H295.238V0.122742Z" fill="white"/>
</mask>
<g mask="url(#mask5_19_115)">
<path d="M380.671 -44.1028C373.226 20.5953 359.72 84.5107 341.125 146.592C329.786 183.832 316.259 220.386 298.817 254.912L296.804 252.697C298.649 251.579 302.193 249.678 303.885 248.537C310.862 244.116 317.559 239.158 323.997 233.887C338.349 222.085 351.722 208.994 364.613 195.388C405.705 151.557 442.315 103.052 476.178 52.7282C493.032 27.4767 509.111 1.59893 523.686 -25.2257C523.896 -25.6133 524.358 -25.7401 524.721 -25.5239C525.085 -25.3002 525.21 -24.8082 525.001 -24.4205C517.765 -10.9411 510.118 2.28483 502.211 15.3244C478.436 54.4131 452.458 91.9437 424.831 128.028C397.001 163.903 367.78 198.929 334.295 229.004C325.165 237.123 315.615 244.757 305.409 251.288C303.284 252.697 300.236 254.33 298.174 255.583C297.447 256.008 296.531 255.717 296.139 254.942C295.874 254.427 295.902 253.838 296.16 253.361C313.658 219.156 327.332 182.766 338.783 145.779C355.854 90.1395 368.451 32.9191 376.728 -24.9498C377.609 -31.3838 378.441 -37.8253 379.168 -44.2892C379.217 -44.729 379.594 -45.0496 380.014 -44.99C380.426 -44.9452 380.72 -44.5427 380.671 -44.1028Z" fill="#B3AAFF" fill-opacity="0.25"/>
</g>
<path d="M445.803 242.469C442.385 250.118 441.881 258.953 441.672 267.317C441.7 276.786 442.42 286.388 444.167 295.618C444.377 296.737 444.608 297.967 444.559 299.115C444.475 303.722 442.476 307.778 440.952 311.893C436.799 321.824 429.662 331.255 419.364 334.304C419.357 334.312 420.811 332.88 420.811 332.88C415.974 345.145 408.403 355.299 398.833 363.507C389.339 371.41 377.085 377.963 364.683 375.22C364.669 375.22 366.34 374.802 366.333 374.802C360.845 378.232 355.756 381.751 350.254 384.696C339.202 390.444 326.954 393.478 314.63 393.448C308.352 393.336 301.865 392.636 296.146 389.564L298.139 389.43C296.433 390.101 294.881 390.876 293.343 391.644L288.764 393.94C279.348 398.63 267.282 399.569 259.963 390.272C259.949 390.257 261.361 391.055 261.354 391.055C247.75 389.676 237.299 375.481 230.091 364.335C226.351 358.371 223.059 352.115 220.116 345.674C217.152 339.18 213.824 332.858 211.902 325.828L213.216 327.229C206.526 324.269 201.276 318.588 197.438 312.199C195.159 308.255 193.502 304.304 191.817 299.89C191.789 299.637 191.775 299.376 191.852 299.152C195.935 283.846 198.305 267.974 200.164 252.19C201.038 244.258 201.695 236.288 201.912 228.311C202.031 220.468 201.786 212.252 199.402 204.826C199.046 203.894 199.605 202.806 200.542 202.649C202.737 202.232 204.876 200.897 206.68 199.168C210.35 195.619 212.866 190.713 214.432 185.71C215.145 183.161 215.502 180.387 214.831 177.785L214.894 177.375C215.047 176.406 215.998 175.787 216.879 176.1C218.123 176.525 219.514 176.645 220.92 176.518C222.325 176.376 223.744 175.996 225.121 175.444C232.51 172.395 241.472 163.605 242.717 154.942C243.038 154.114 243.877 153.63 244.681 153.853C248.638 154.897 252.685 155.613 256.775 156.09C281.284 158.953 319.95 153.898 340.747 139.278C341.446 138.764 342.411 138.965 342.886 139.725L343.159 140.158C346.689 154.047 360.531 164.03 372.527 169.04C376.819 170.777 381.286 172.007 385.788 172.537C386.403 172.611 386.9 173.066 387.074 173.663C387.081 173.663 387.179 174.013 387.179 174.013C387.179 177.875 388.123 181.707 389.528 185.3C392.443 192.465 397.015 198.847 402.349 204.14C405.033 206.765 407.977 209.128 411.143 210.828C411.779 211.163 412.087 211.909 411.94 212.61C411.94 212.61 411.835 213.072 411.835 213.079C408.669 217.985 408.032 224.285 408.375 230.115C408.752 235.938 410.074 241.969 412.982 246.919C413.254 247.374 413.248 247.933 413.003 248.366L412.667 248.955C410.109 250.878 408.193 253.793 406.788 256.902C402.559 266.438 403.097 277.412 403.803 287.663C403.971 290.705 402.803 293.613 401.517 296.222C398.043 304.073 392.849 311.163 385.159 314.764L386.382 313.534C381.824 322.16 378.238 331.114 371.779 338.308C365.312 345.801 356.127 349.953 346.486 348.857L348.311 347.933C337.685 361.547 327.625 369.3 310.47 369.986C305.5 370.143 300.495 369.643 295.531 368.279L297.335 367.839C289.603 372.238 284.423 376.472 275.23 373.184C272.728 372.297 270.372 370.978 268.072 369.546L269.211 369.956C254.006 369.091 241.906 343.795 236.012 330.763L228.791 314.398L229.945 315.696C227.735 314.436 226.009 312.937 224.317 311.364C219.109 306.578 215.788 300.628 212.587 294.127L212.629 293.262C214.565 287.149 215.481 280.633 216.404 274.258C217.284 267.772 217.928 261.249 218.389 254.71C219.018 244.936 219.528 235.05 218.438 225.291C218.032 222.212 217.564 218.857 216.334 216.099C216.005 215.39 216.236 214.541 216.851 214.123L217.452 213.728C222.765 213.072 226.351 204.632 227.365 199.548C227.763 197.438 227.952 195.253 227.624 193.091C227.547 192.584 227.819 192.1 228.26 191.928C228.26 191.921 229.308 191.496 229.308 191.496C236.341 192.368 243.905 189.244 248.659 183.63C250.197 181.692 251.343 179.329 251.504 176.831C251.539 176.302 251.937 175.884 252.42 175.84L253.538 175.728C274.105 181.99 296.286 178.076 315.881 169.771C322.508 167.012 328.912 163.538 334.595 158.871C335.245 158.334 336.196 158.483 336.678 159.199L337.056 159.781C337.86 163.933 339.817 167.81 342.481 171.016C350.618 180.447 363.257 185.01 375.099 184.204C376.057 184.122 376.882 184.98 376.833 186.001C376.833 186.001 376.812 186.426 376.812 186.434C374.463 192.733 375.309 200.085 378.441 205.937C381.545 211.827 386.564 216.591 392.324 219.32C392.961 219.618 393.289 220.348 393.149 221.049L393.03 221.631C390.22 225.679 389.067 230.823 389.172 235.818C389.311 240.664 390.43 245.838 393.513 249.514C393.834 249.879 393.904 250.409 393.722 250.841L393.38 251.669C389.207 255.225 387.613 261.212 386.55 266.594C386.033 269.405 385.739 272.275 385.718 275.116C385.739 277.815 385.907 280.886 387.032 283.227C387.032 283.235 387.088 283.615 387.088 283.615C386.466 286.195 385.991 288.633 385.236 290.996C383.104 298.668 377.05 303.506 369.975 305.564C369.975 305.571 371.422 304.237 371.415 304.267C367.486 311.521 364.173 318.872 358.343 324.545C352.61 330.293 344.913 333.701 336.93 333.619L338.531 332.836C336.888 334.297 335.378 335.773 333.861 337.212C323.228 348.075 309.422 354.62 294.797 348.925C294.79 348.932 297.006 348.291 296.978 348.313C294.273 350.237 292.008 352.57 289.065 354.024C283.843 356.648 278.236 353.778 274.363 349.782C274.356 349.782 276.426 350.393 276.384 350.401C271.176 352.16 265.968 348.738 262.43 345.04C252.161 334.357 246.904 319.938 238.725 307.599L239.85 308.598C232.636 304.669 228.176 297.594 225.051 289.878L225.254 288.826C232.279 276.294 234.782 256.552 235.139 241.991C235.139 236.646 234.817 231.099 233.195 226.044C233.02 225.515 233.181 224.948 233.566 224.605L234.286 223.972C237.012 223.86 239.06 220.55 240.207 218.052C241.472 215.159 242.29 211.737 241.388 208.591C241.29 208.293 241.402 207.965 241.647 207.808C241.654 207.801 243.01 206.914 243.01 206.906C248.582 207.711 256.432 202.515 258.662 196.998C259.012 196.088 259.25 195.127 259.229 194.15C259.222 193.71 259.529 193.345 259.935 193.293L261.333 193.106C266.527 195.067 271.987 196.32 277.523 196.931C292.008 198.526 314.085 195.701 325.458 185.36C326.116 184.726 327.178 184.905 327.632 185.71C327.632 185.718 328.031 186.426 328.038 186.434C328.513 195.984 336.266 202.895 344.151 206.079C346.843 207.197 349.639 208.025 352.526 208.651C353.016 208.763 353.393 209.143 353.526 209.627C353.526 209.635 353.694 210.239 353.694 210.246C352.701 214.891 355.197 219.454 358.573 222.272C362.048 225.247 366.2 227.125 370.485 228.43C371.087 228.609 371.464 229.205 371.436 229.839L371.401 230.644C369.045 233.783 369.073 238.122 370.241 241.775C371.408 245.488 373.603 248.761 376.393 251.303C376.721 251.594 376.84 252.041 376.749 252.451C376.749 252.459 376.56 253.309 376.56 253.316C373.449 256.634 371.96 261.264 371.737 265.871C371.513 270.553 372.66 275.026 372.911 279.716C372.89 280.946 372.415 282.139 371.828 283.183C370.073 285.852 368.549 288.595 366.193 290.69C363.054 293.516 359.328 295.32 355.232 296.207L356.896 294.716C355.323 298.019 353.91 301.083 352.324 304.088C347.759 313.012 339.293 322.443 328.835 320.534C328.828 320.542 330.925 319.543 330.904 319.573C323.941 328.34 316.224 335.311 305.143 336.34C301.669 336.668 298.083 336.295 294.615 335.125L296.643 334.632C289.946 337.935 285.863 337.89 279.537 333.768C279.537 333.775 281.053 334.304 281.005 334.304C268.344 334.677 260.326 320.318 255.398 309.731C253.615 305.892 251.979 302.142 250.315 298.168L252.035 299.652C248.057 298.772 244.632 296.684 241.836 293.702C239.69 291.369 238.222 288.864 235.719 286.716C235.719 286.709 235.677 285.21 235.677 285.203C237.592 281.125 239.046 276.704 240.27 272.238C243.297 260.496 246.764 242.655 242.178 231.189C242.178 231.181 242.94 229.161 242.947 229.161C243.059 229.22 243.325 229.131 243.548 229.004C244.324 228.564 244.961 227.849 245.548 227.125C247.666 224.233 249.903 219.819 248.554 216.121C248.421 215.845 248.512 215.51 248.756 215.361L250.294 214.399C251.7 214.749 253.258 214.734 254.775 214.466C258.229 213.84 264.863 211.141 265.262 206.817C265.296 206.63 265.275 206.414 265.248 206.205C265.22 205.967 265.373 205.751 265.59 205.721C265.597 205.721 267.526 205.43 267.533 205.43C271.35 207.726 275.629 209.27 280.019 210.216C291.756 212.707 309.492 211.551 318.866 202.858C319.439 202.299 320.355 202.388 320.817 203.052C320.824 203.059 321.341 203.79 321.348 203.797C321.886 208.703 324.913 213.064 328.954 215.39C333.043 217.799 337.811 217.933 342.362 217.925C343.306 217.918 344.061 218.775 344.012 219.774C343.438 221.407 343.41 223.189 343.802 224.866C344.613 228.288 347.137 231.002 349.947 232.732C351.38 233.604 352.925 234.253 354.568 234.663C355.008 234.775 355.309 235.177 355.337 235.632C355.337 235.639 355.386 236.445 355.386 236.452C353.848 239.218 354.183 242.707 355.071 245.674C355.84 248.008 357.252 250.207 357.56 252.765C357.958 255.374 356.882 257.953 356.364 260.391C355.42 265.513 354.665 270.576 351.666 274.982L352.247 273.714C351.611 274.937 350.905 276.532 350.303 277.755C348.535 281.796 345.717 284.875 342.047 287.097C342.047 287.104 343.292 285.822 343.285 285.852C337.622 294.194 333.106 306.98 322.124 308.024C322.124 308.024 323.711 307.219 323.697 307.234C316.72 313.138 311.889 317.321 302.487 316.739C299.858 316.575 297.251 316.024 294.671 315.271L295.888 315.248C293.874 314.905 292.413 315.144 290.554 314.838C289.1 314.63 287.093 313.884 285.674 313.437L286.303 313.66C283.291 313.183 280.396 312.289 277.698 310.991C268.722 306.757 264.416 299.629 259.11 291.279L260.158 292.398C257.243 289.967 253.902 287.32 251.273 284.562C250.322 283.652 249.309 282.795 248.036 281.826L247.89 280.514C250.336 273.431 252.28 266.229 253.496 258.811C254.062 255.128 254.594 251.4 254.545 247.658C254.468 243.915 253.741 240.217 253 236.72C252.874 236.213 253.007 235.669 253.321 235.319C255.922 233.835 257.677 230.86 257.865 227.759C257.921 226.708 257.691 225.649 257.236 224.672L258.802 222.943C259.264 223.114 259.893 223.159 260.494 223.114C263.605 222.995 270.546 220.229 270.56 216.27C270.491 215.95 270.714 215.622 271.022 215.599L272.777 215.48C281.655 221.698 292.987 223.86 303.34 221.467C306.765 220.647 310.051 219.29 313.043 217.396C313.889 216.844 315.049 217.321 315.336 218.335L315.504 218.909C315.266 219.655 315.238 220.49 315.336 221.318C315.888 226.41 321.844 232.732 326.808 231.8C327.395 231.643 327.996 232.031 328.143 232.665L328.15 232.687C328.15 232.695 328.394 233.872 328.394 233.88C326.255 236.959 328.422 243.378 332.449 242.498C332.561 242.461 332.68 242.528 332.722 242.64C332.722 242.655 332.729 242.67 332.729 242.685C332.729 242.685 333.092 245.563 333.092 245.57C329.758 245.682 330.415 253.018 332.938 254.024C333.022 254.062 333.071 254.151 333.057 254.241L332.729 256.328C331.834 256.47 331.1 257.111 330.555 257.864C329.177 259.907 328.646 263.098 329.925 265.312C330.037 265.461 330.191 265.595 330.31 265.536C330.387 265.483 330.499 265.58 330.471 265.677L329.925 267.623C329.548 267.638 329.163 267.757 328.8 267.862C326.444 268.823 325.158 271.44 324.899 274.02L325.207 273.461C324.088 274.967 323.019 275.988 321.788 277.211C318.426 280.611 314.385 283.302 309.562 283.205L310.813 282.691C308.443 284.502 305.745 285.263 302.976 285.889C300.201 286.441 296.999 285.911 294.881 283.682L295.804 284.211C289.023 282.817 282.976 279.179 280.459 271.985L281.095 272.76C280.522 272.626 280.033 272.208 279.627 271.746C278.453 270.121 277.376 268.846 276.335 267.019L276.384 266.564C278.858 261.368 280.557 253.532 278.572 247.918L279.641 246.278C282.717 246.584 286.499 244.892 286.206 241.164L287.897 240.359C292.302 243.415 298.768 243.497 302.962 240.031L304.892 240.53L304.913 240.851L304.969 241.142C305.444 243.945 308.527 245.324 310.848 244.109C310.855 244.109 311.12 243.952 311.12 243.952L312.099 244.474C311.994 246.606 313.469 248.545 315.511 248.358C315.511 248.358 315.762 248.321 315.769 248.321L316.294 249.581C315.518 250.394 315.161 251.251 315.154 252.295C315.133 252.973 315.42 253.719 315.853 254.248C316.056 254.457 316.28 254.718 316.524 254.882L316.315 255.866C314.455 256.671 312.833 258.498 313.246 260.757C313.42 261.711 312.84 262.621 311.952 262.807C310.002 263.18 309.226 260.272 311.03 259.474C313.029 258.61 313.581 256.179 313.204 254.069L312.994 255.053L313.19 254.882C314.658 253.421 314.35 251.042 312.763 249.753L313.288 251.012C313.616 248.731 311.729 247.001 309.617 247.158L310.596 247.68C309.443 246.562 307.975 245.801 306.625 245.033C305.248 244.28 303.794 243.468 302.27 243.058L304.207 243.557C301.25 243.818 298.467 243.93 295.573 243.736C292.749 243.579 290.058 243.199 287.177 243.497L288.869 242.692C287.331 243.766 286.178 244.989 284.794 246.144C283.514 247.24 282.193 248.247 281.033 249.745L282.102 248.105C280.082 252.407 280.271 257.804 279.648 262.471C279.495 264.089 279.348 265.715 279.313 267.377L279.362 266.915C278.628 267.653 278.712 268.846 279.313 269.606C280.04 270.456 281.305 270.255 282.116 270.948C282.305 271.075 282.41 271.284 282.424 271.507C282.515 274.788 284.535 277.725 287.149 279.358C289.778 281.05 292.959 281.781 296.007 281.52C296.391 281.49 296.734 281.714 296.894 282.057C297.307 283.093 298.167 283.936 299.257 284.383C302.095 285.621 307.548 284.286 308.8 281.073C308.869 280.551 309.422 280.245 309.862 280.469C313.749 282.571 318.489 279.835 320.67 276.189C321.348 275.041 322.033 273.498 321.886 272.164L322.194 271.604C324.263 271.008 325.787 269.271 326.759 267.31C327.066 266.669 327.241 265.99 327.402 265.297L327.444 264.939L327.066 267.034C326.975 266.162 327.101 265.61 327.248 264.872C328.192 261.085 329.108 257.573 330.17 253.734L329.96 256.045C329.534 253.637 329.646 251.81 329.751 249.566C329.988 247.374 329.911 245.123 330.548 242.953L331.184 246.017C327.828 242.379 326.081 238.331 324.878 233.485L326.472 235.55C320.215 233.231 314.812 225.463 311.994 219.334L314.462 220.848C310.897 222.033 307.283 222.928 303.647 223.383C292.63 224.971 282.046 221.534 271.406 218.947L273.615 218.149C272.378 219.245 271.064 219.849 269.757 220.587C268.582 221.221 267.478 221.899 266.352 222.563L262.955 224.576C261.808 225.254 260.459 226.119 259.18 226.678L260.753 224.896C260.13 226.044 259.697 227.088 259.27 228.109C258.075 231.263 256.915 234.201 256.174 237.548L256.495 236.154C256.796 240.098 256.181 243.96 255.782 247.725C254.95 259.042 252.881 270.188 251.315 281.401C251.308 281.438 251.168 280.089 251.168 280.096C251.035 281.438 251.448 282.705 252.14 283.727C254.321 286.657 257.886 288.625 261.375 288.864C261.375 288.864 262.423 289.975 262.423 289.982C262.633 293.024 263.675 295.916 265.178 298.481C269.701 306.026 277.922 311.431 286.429 310.969C286.436 310.969 287.058 311.193 287.058 311.193C288.513 313.407 293.224 315.554 294.615 312.311C295 312.236 295.482 312.043 295.825 312.289C302.144 316.315 310.743 316.464 316.657 311.483C318.594 309.843 320.131 307.644 320.81 305.057C320.817 305.057 321.32 304.542 321.32 304.542C321.613 304.244 322.026 304.155 322.389 304.267C324.354 304.863 326.647 304.386 328.674 303.238C334.239 300.01 339.943 291.637 339.922 284.704L340.663 283.675C340.782 283.511 340.971 283.429 341.159 283.451C345.27 283.988 349.583 279.88 349.22 275.354C349.178 274.706 349.017 274.065 348.723 273.453L349.045 272.499C349.094 272.357 349.185 272.246 349.304 272.186C350.471 271.582 351.492 270.449 352.31 269.166C353.938 266.55 354.959 263.366 355.274 260.22C355.413 258.214 354.896 256.231 354.686 254.278C354.288 251.542 354.274 248.753 353.938 245.965C353.386 242.588 352.617 239.27 352.421 235.789L353.232 237.563C351.834 236.37 350.408 235.259 349.073 234.051C345.606 231.069 342.963 227.2 341.432 222.712C341.104 221.787 340.81 220.833 340.474 219.834L342.131 221.683C334.875 220.676 327.842 217.165 322.802 211.454C321.061 209.531 319.607 207.391 318.083 205.229L320.558 206.161C318.23 206.869 316.007 207.629 313.784 208.33C298.383 213.616 281.459 214.928 266.044 208.845C266.01 208.83 268.316 208.069 268.309 208.062C265.387 209.993 262.787 212.423 259.788 214.205C256.796 215.979 253.776 217.381 250.329 218.164L252.07 216.442C250.812 218.962 249.484 221.601 248.533 224.24L247.03 228.08C246.401 229.571 245.96 231.054 244.849 232.329L245.618 230.309C245.897 235.311 245.75 240.008 245.513 244.735C244.793 258.93 242.584 272.879 238.956 286.597C238.942 286.642 238.914 285.099 238.907 285.106C238.837 286.94 239.396 288.588 240.235 290.019C242.731 294.015 247.505 297.072 252.042 295.887C252.049 295.887 252.93 296.155 252.93 296.163C253.44 296.319 253.769 296.826 253.769 297.37C253.622 309.657 267.247 333.947 280.55 330.569H280.557L281.662 330.808C281.822 330.845 281.962 330.957 282.032 331.106C282.633 332.306 283.479 333.365 284.5 334.17C287.247 336.608 293.287 336.824 293.972 332.165C293.972 332.165 294.392 331.792 294.399 331.792C294.867 331.389 295.51 331.36 296.007 331.665C298.691 333.313 301.858 334.178 305.074 334.237C314.085 334.476 325.899 327.982 327.737 317.895C327.744 317.888 328.038 317.44 328.045 317.433C328.45 316.821 329.198 316.62 329.814 316.911C340.684 321.779 354.428 305.027 353.442 293.948C353.442 293.941 353.722 293.262 353.729 293.255C353.966 292.666 354.54 292.353 355.106 292.442C360.433 293.247 366.41 290.355 369.122 285.3C369.926 283.548 369.647 281.468 369.898 279.634C369.514 276.525 369.786 269.919 370.534 265.729C371.247 260.883 372.576 256.477 373.422 251.579L373.582 253.585C372.736 251.676 371.863 249.82 371.094 247.918C370.325 246.025 369.647 244.101 369.171 242.111C368.144 238.018 368.234 233.843 368.004 229.608C368.011 229.563 368.92 231.815 368.92 231.807C363.425 227.446 357.14 223.912 353.351 217.575C352.058 215.495 351.079 213.146 350.177 210.619L351.345 212.207C338.314 205.408 331.96 201.538 324.661 187.545L327.234 188.611C316.65 192.666 305.577 196.864 294.378 198.258C283.067 199.824 271.553 199.384 260.361 196.73L262.458 195.678C258.138 200.383 254.335 204.826 248.994 208.062C247.26 209.106 245.436 210.06 243.276 210.664L244.898 208.986C243.36 212.095 242.36 215.279 241.186 218.514C239.822 221.907 238.683 225.09 235.579 227.476L236.677 225.403C236.684 231.054 236.467 236.452 236.222 242.021C235.789 252.951 234.789 263.821 232.776 274.572C231.72 280.044 230.476 285.404 228.365 290.601L228.567 289.55C226.54 296.565 234.593 304.654 240.78 304.967C241.137 305.236 241.829 305.467 241.913 305.974C243.143 310.857 244.975 315.442 247.135 319.856C251.965 329.115 259.914 343.199 269.4 347.061C271.308 347.754 273.364 347.821 275.139 346.874L276.083 346.807C276.551 346.777 276.978 347.061 277.167 347.486C277.978 349.275 279.166 350.878 280.676 352.026C285.632 356.007 292.854 352.466 294.091 346.136C294.622 345.368 295.489 345.018 296.279 345.51C302.899 349.678 311.344 349.722 318.496 346.815C325.633 343.81 332.799 338.569 335.644 330.659C335.651 330.651 335.923 330.331 335.93 330.323C336.273 329.928 336.783 329.772 337.252 329.868C344.417 331.442 352.037 328.698 357.546 323.591C363.117 318.424 367.507 311.163 368.032 303.148C368.039 303.141 368.318 302.567 368.325 302.567C368.549 302.09 369.01 301.829 369.472 301.836C373.764 301.94 378.14 300.188 381.062 296.744C384.012 293.322 385.557 288.237 384.061 283.712C382.915 275.369 386.641 258.706 390.619 249.313C390.626 249.298 390.486 251.467 390.486 251.46C386.83 241.268 388.144 230.682 389.752 220.214L390.458 222.518C387.829 220.199 385.39 217.776 383.188 215.115C376.106 206.809 373.121 196.901 373.331 185.763C373.331 185.733 375.043 187.977 375.043 187.977C366.696 186.963 358.629 184.413 351.394 179.94C344.033 175.452 338.629 168.749 333.819 161.279L336.287 162.181C322.711 167.512 309.939 174.423 295.776 177.756C281.725 181.349 267.03 182.244 252.727 179.396L254.761 178.292C248.295 187.224 239.983 193.226 229.441 195.261L231.119 193.665C227.68 200.994 225.498 213.049 218.571 217.299C218.557 217.307 219.689 214.928 219.689 214.928C220.689 221.668 220.234 228.333 220.193 235.073C219.871 251.534 218.99 267.951 217.389 284.338C217.033 287.641 216.697 290.906 216.019 294.314L216.061 293.449C215.32 297.974 217.76 302.298 220.577 305.497C223.373 308.621 227.015 311.446 231.056 312.125C231.51 312.453 232.196 312.751 232.21 313.422C232.748 319.252 234.705 324.955 236.935 330.301C239.27 335.669 241.906 340.902 244.919 345.853C250.057 354.076 258.991 366.795 269.141 366.191C269.148 366.191 269.847 366.34 269.854 366.34C270.029 366.378 270.176 366.475 270.288 366.601C275.293 372.61 283.081 375.168 289.855 370.836C291.952 369.479 293.735 367.563 294.867 365.147C295.363 364.655 296.056 364.402 296.678 364.708C305.374 368.54 315.615 368.92 324.654 365.908C333.7 362.851 342.187 355.918 345.242 346.054C345.634 345.368 346.333 344.913 347.067 345.137C355.609 347.672 364.788 344.108 370.919 337.398C377.162 330.666 381.901 321.861 383.027 312.356L383.271 311.841C383.474 311.431 383.845 311.178 384.243 311.126C390.353 310.209 395.673 305.027 398.784 299.465C400.916 296.222 400.888 291.279 400.79 287.984C400.168 280.752 401.356 273.64 402.845 266.654C404.39 259.519 406.334 252.779 410.067 246.398L409.752 248.433C407.452 239.434 406.83 230.286 407.557 221.057C407.76 218.007 408.116 214.958 408.536 211.737L409.221 213.989C397.407 203.611 389.381 189.803 383.719 174.766C383.712 174.758 385.11 176.242 385.11 176.235C366.543 170.837 350.702 158.707 339.95 141.746L342.362 142.626C334.379 145.809 326.479 148.523 318.44 150.901C294.287 157.827 268.925 161.316 243.982 157.544L245.946 156.455C238.83 166.043 228.994 180.171 216.306 179.813L218.347 178.136C217.187 180.932 216.306 183.459 215.411 186.061C212.719 193.919 209.007 202.038 201.716 206.198L202.856 204.021C203.792 220.214 202.751 236.236 201.381 252.332C200.269 264.298 198.857 276.234 197.179 288.133C196.599 292.107 196.026 296.066 195.278 300.084C195.278 300.084 195.313 299.339 195.313 299.346C194.033 309.918 204.415 322.435 214.034 323.569C214.81 323.628 215.124 324.292 215.348 324.97C215.935 328.362 216.683 331.807 217.613 335.207C222.213 352.168 237.264 377.404 252.413 385.083C255.237 386.507 258.341 387.409 261.431 387.29C262.032 387.245 262.5 387.618 262.836 388.08C268.722 399.323 284.136 396.893 292.567 390.295C293.86 389.214 295.042 387.976 295.951 386.463C296.125 386.179 296.44 386.045 296.734 386.097C296.741 386.097 297.943 386.328 297.95 386.328C302.76 389.639 308.967 390.787 314.707 391.234C326.71 392.002 338.971 389.31 349.8 383.711C355.225 380.938 360.398 377.24 363.977 371.999C364.334 371.41 365.103 371.589 365.641 371.589C371.003 373.609 377.064 373.043 382.495 371.239C397.351 366.325 415.82 349.267 417.372 332.008C417.407 331.456 417.75 331.009 418.204 330.83C418.204 330.823 418.819 330.584 418.819 330.584C426.635 330.077 433.087 323.785 437.233 317.045C441.098 310.73 442.329 305.325 441.015 297.892C440.7 296.341 440.357 294.746 440.162 293.188C439.043 284.517 439.735 275.884 440.357 267.258C441.098 258.565 441.672 250.155 443.44 241.522C443.601 240.791 444.286 240.336 444.964 240.508C445.768 240.694 446.202 241.701 445.803 242.469Z" fill="#B3AAFF" fill-opacity="0.25"/>
<path d="M441.826 197.721C430.913 191.295 422.105 181.357 415.408 170.263C411.423 163.456 408.396 156.344 405.537 148.829C405.537 148.829 406.921 150.238 406.914 150.238C398.162 147.755 390.08 143.886 382.279 139.211C371.982 133.001 362.6 125.098 355.064 115.309C353.149 112.879 351.338 110.321 349.541 107.615L352.03 108.435C349.597 109.576 347.2 110.784 344.788 111.962C316.895 125.948 291.651 133.769 260.543 128.527C250.078 126.738 239.843 123.495 229.994 119.231L232.412 118.03C226.918 130.257 220.207 142.424 208.658 149C204.904 151.207 200.73 152.72 196.291 153.302L197.878 152.124C195.865 155.173 194.117 158.215 192.251 161.175C186.791 170.3 179.626 178.21 170.671 183.511L171.712 181.386C176.522 218.224 173.054 255.635 166.217 291.905C165.183 297.094 163.987 302.254 162.54 307.413L162.477 305.952C162.848 307.882 163.519 309.739 164.351 311.498C168.517 319.945 176.305 327.267 183.967 332.031C187.162 333.962 190.587 335.505 194.068 336.25C194.739 336.362 195.089 336.966 195.264 337.577C198.207 360.63 212.426 389.079 230.308 402.671C236.726 407.576 244.276 410.849 251.986 411.215C252.322 411.244 252.608 411.371 252.867 411.572C263.975 421.346 282.487 417.828 292.749 408.121C294.28 406.6 295.657 404.915 296.734 402.976C296.936 402.611 297.314 402.425 297.684 402.462C297.691 402.462 298.614 402.551 298.614 402.551C309.331 408.911 321.509 411.595 333.498 413.72C349.457 416.18 366.109 417.067 381.838 412.691C385.69 411.535 389.472 409.977 392.681 407.636C392.863 407.517 393.044 407.45 393.254 407.427C399.483 407.04 404.649 402.313 408.033 396.9C411.598 391.271 413.849 384.74 415.261 378.12C415.324 377.829 415.589 377.65 415.862 377.71C416.128 377.77 416.296 378.053 416.254 378.336C415.659 381.758 414.834 385.135 413.744 388.431C410.507 398.235 404.041 408.896 393.464 410.111L394.037 409.902C380.692 417.939 360.482 417.537 345.529 416.292C329.052 414.957 313.393 410.208 297.342 406.07L299.229 405.645C291.896 410.536 284.87 416.008 276.286 417.992C267.785 420.079 258.411 419.527 250.784 414.614L251.665 414.972C247.484 414.353 243.423 413.078 239.648 411.252C232.112 407.621 225.666 401.955 220.172 395.484C209.224 382.586 202.171 366.721 196.312 350.662C194.802 346.643 193.383 342.587 191.845 338.524L193.041 339.851C185.84 336.608 179.737 331.703 174.138 326.096C168.538 320.504 164.071 313.981 159.29 307.584C159.08 307.122 159.031 306.585 159.22 306.13C161.093 301.344 162.603 296.349 163.931 291.302C169.161 271.015 171.894 250.006 172.544 228.989C172.866 213.303 172.069 197.371 168.252 182.169L168.224 181.67C168.175 180.909 168.636 180.238 169.293 180.037C177.074 177.614 183.736 171.776 188.588 164.925C191.552 160.75 193.887 155.963 194.6 150.722C194.6 150.715 194.781 150.364 194.781 150.364C195.068 149.798 195.627 149.5 196.187 149.537C204.226 150.118 212.181 145.809 217.928 139.904C223.828 133.843 228.183 125.747 229.015 116.979C229.28 115.965 230.294 115.339 231.245 115.704C240.654 120.543 250.602 124.255 260.899 126.365C291.526 132.74 324.962 124.621 350.24 105.192L350.905 104.953C351.688 104.67 352.54 105.162 352.736 106.012C353.435 108.964 354.721 111.76 356.28 114.362C365.319 128.669 383.845 139.86 399.182 144.616C401.958 145.466 404.775 146.13 407.592 146.54L408.165 146.786C408.634 146.987 408.934 147.449 408.969 147.949C409.557 155.695 412.381 163.15 416.24 169.711C420.071 176.339 424.95 182.318 430.571 187.269C432.451 188.924 434.408 190.452 436.464 191.809C438.512 193.181 440.665 194.366 442.867 195.268C443.524 195.537 443.846 196.32 443.594 197.013C443.329 197.766 442.49 198.101 441.826 197.721Z" fill="#B3AAFF" fill-opacity="0.25"/>
<path d="M282.011 415.211C287.352 417.142 293.245 416.247 298.321 413.884C298.586 413.757 298.887 413.764 299.145 413.854C322.732 422.152 362.055 409.768 375.547 386.97C375.938 386.425 376.588 386.209 377.169 386.321C380.419 387.014 383.831 387.134 387.242 386.858C404.286 385.203 421 375.585 433.073 362.844C437.96 357.67 442.308 351.467 443.965 344.25C444.167 343.736 444.559 343.326 445.055 343.221C458.743 339.993 472.102 322.525 474.486 308.084C474.843 305.765 474.933 303.409 474.605 301.158L474.71 301.873C471.697 290.631 470.613 279.119 470.578 267.519C470.522 255.896 472.228 244.661 473.361 233.06L473.808 234.886C471.221 231.405 469.075 227.744 467.244 223.934C461.644 212.431 459.065 199.868 458.31 186.941L459.372 188.872C449.243 183.094 440.791 175.049 433.283 165.969C425.88 156.739 419.637 146.704 416.093 134.939C416.079 134.909 417.708 136.49 417.708 136.482C407.166 134.775 397.98 128.855 389.423 122.481C375.295 111.656 363.83 97.7216 355.931 81.0364C355.91 81.0066 358.608 82.0131 358.601 82.0056C357.651 82.4604 356.574 83.1687 355.623 83.6682C351.38 86.0017 346.948 88.1563 342.579 90.1469C315.616 102.396 285.73 107.764 256.544 104.096C244.856 102.59 233.293 99.5259 222.318 94.65L224.688 93.6286C222.017 98.1093 219.417 102.433 216.495 106.668C207.994 119.007 195.411 131.07 180.129 130.391L182.072 128.908C178.36 137.34 174.376 144.952 168.447 151.647C162.61 158.17 154.907 164.224 146.007 163.956L147.958 161.786L149.272 180.574C151.803 217.881 152.844 255.985 144.917 292.673C143.505 298.787 141.666 304.818 139.045 310.581C138.737 311.245 137.982 311.528 137.353 311.2C136.696 310.865 136.444 309.992 136.808 309.321C150.754 280.968 151.111 231.308 149.419 199.354C148.699 186.926 147.322 174.483 144.476 162.382C144.218 161.346 144.945 160.28 145.951 160.235C145.958 160.235 146.427 160.213 146.434 160.213C150.062 161.048 154.117 160.138 157.717 158.289C165.071 154.487 170.95 147.837 175.152 140.434C177.151 136.713 178.724 132.456 178.619 128.132C178.598 127.618 178.913 127.178 179.36 127.036C179.36 127.036 180.569 126.649 180.576 126.656C196.256 129.914 212.859 113.646 219.214 99.4289C220.2 97.1252 220.99 94.7171 221.409 92.2345C221.563 91.2802 222.534 90.6912 223.387 91.049C233.88 96.4393 245.205 100.063 256.824 101.897C285.793 106.691 324.417 100.816 349.618 84.3243C351.037 83.3476 351.932 82.7437 353.219 81.7372C354.4 80.8575 355.504 79.8585 356.616 78.8893C357.399 78.1959 358.629 78.4717 359.091 79.441C359.091 79.4484 359.293 79.8659 359.293 79.8734C359.776 83.3849 360.943 86.7995 362.439 90.0202C369.814 105.088 385.026 118.813 399.077 126.574C404.936 129.728 411.423 132.479 417.959 132.717C418.763 132.747 419.413 133.373 419.56 134.179C419.707 137.056 420.245 139.957 421.112 142.767C425.6 156.776 435.513 168.22 446.411 177.047C450.872 180.499 455.674 183.534 460.763 185.405C461.33 185.614 461.707 186.15 461.77 186.747L461.826 187.336C458.792 199.436 462.805 212.61 468.81 222.973C470.928 226.439 473.396 229.683 476.325 232.24C476.835 232.687 476.968 233.418 476.765 234.059C472.333 244.482 471.599 256.194 471.809 267.504C472.039 276.011 473.074 284.517 475.325 292.673C476.038 295.387 476.989 298.011 478.023 300.554C478.114 300.792 478.149 301.038 478.135 301.284C474.395 319.438 462.532 339.404 446.09 346.83C446.083 346.83 447.18 345.808 447.18 345.808C443.042 352.168 438.827 358.125 433.814 363.627C419.952 378.523 396.757 391.942 376.623 390.049C376.623 390.049 378.259 389.4 378.238 389.415C369.996 397.072 361.321 404.124 351.338 408.911C338.202 415.248 323.725 418.707 309.275 418.111C305.64 417.947 301.998 417.425 298.397 416.426C298.397 416.426 299.243 416.396 299.222 416.396C296.37 417.417 293.378 418.014 290.379 418.036C287.387 418.059 284.367 417.499 281.641 416.217C281.382 416.098 281.27 415.777 281.382 415.509C281.494 415.248 281.767 415.121 282.011 415.211Z" fill="#B3AAFF" fill-opacity="0.25"/>
<path d="M177.032 348.716C178.304 358.49 182.03 367.72 185.694 376.711C195.921 400.777 214.153 433.476 241.472 435.594C241.85 435.735 242.542 435.87 242.703 436.295C247.841 446.687 258.802 452.48 269.407 453.934C280.236 455.38 291.197 452.204 300.634 446.62C301.25 446.24 301.935 446.412 302.452 446.814C317.531 462.232 339.999 468.562 360.377 464.096C370.597 461.949 380.272 457.379 389.067 451.481C397.938 445.569 405.97 438.315 413.331 430.405C413.751 430.025 414.31 429.905 414.807 430.04C416.841 430.599 418.931 430.934 421.042 431.061C427.488 431.426 433.891 429.823 439.826 427.065C462.525 416.329 482.05 387.931 485.266 361.755C485.399 361.368 485.657 361.055 485.979 360.876C488.551 359.444 491.012 357.7 493.256 355.657C500.1 349.528 505.049 341.193 507.971 332.172C509.6 326.886 511.026 321.347 510.747 315.726C510.705 314.279 510.474 312.356 510.404 310.947C510.181 307.815 510.09 304.513 509.957 301.381C509.761 272.775 517.101 245.175 523.735 217.724L524.309 219.916C513.396 209.739 504.113 197.035 500.079 182.013C498.66 177.003 497.723 171.963 496.688 166.804L497.646 168.451C484.665 160.392 473.5 149.089 465.146 135.819C458.855 125.903 454.507 114.772 451.578 103.246C450.585 99.3917 449.739 95.4776 448.914 91.5113C448.914 91.5113 450.599 93.226 450.592 93.226C425.607 90.9894 399.343 84.6001 380.475 65.9019C374.212 59.7363 368.948 52.7058 363.76 45.4517C363.753 45.4517 366.102 46.2047 366.095 46.2047C353.813 51.5279 341.726 57.2536 329.157 61.7343C290.771 75.9444 250.225 73.0442 211.999 59.8034C211.999 59.8034 214.257 58.6031 214.25 58.618C204.037 80.5593 186.924 102.568 162.484 104.484C162.484 104.484 164.169 103.112 164.162 103.119C157.171 118.597 151.866 130.138 136.933 138.6C132.599 141.053 127.957 142.879 123.204 144.296L124.581 142.059C125.161 150.26 125.371 158.267 125.469 166.423C125.629 213.31 115.101 266.356 84.7549 301.888C79.5538 307.853 73.7306 313.243 67.376 317.85L68.18 316.337C67.2292 323.121 67.3131 330.062 68.2359 336.854C70.1863 350.349 75.2336 363.656 83.6084 374.042C87.7679 379.194 92.8501 383.518 98.5335 386.231C98.953 386.425 99.2466 386.806 99.3724 387.238C99.8338 391.018 100.351 394.813 101.218 398.525C102.833 405.802 105.231 412.862 108.034 419.714C123.064 456.089 149.719 493.314 188.049 501.708C194.83 503.088 201.786 503.364 208.609 502.551C209.14 502.484 209.644 502.693 209.993 503.073C221.199 519.02 238.389 529.815 256.544 534.057C274.762 538.382 294.308 534.318 310.065 523.806C310.366 523.598 310.715 523.59 311.037 523.68C320.579 526.766 330.974 524.694 339.873 520.146C348.905 515.523 357.056 508.702 363.341 500.352C363.516 500.12 363.83 500.076 364.054 500.262C364.264 500.441 364.306 500.777 364.145 501.008C357.909 509.716 349.8 516.85 340.642 521.838C331.435 526.848 320.53 529.286 310.345 526.267L311.316 526.14C307.122 528.526 302.774 530.621 298.293 532.291C270.092 543.011 241.5 534.632 218.487 515.374C214.712 512.325 211.077 509.067 207.463 505.697L208.924 506.301C164.323 509.589 129.824 469.784 111.543 430.382C105.175 416.836 100.68 402.641 95.9889 388.312C95.9889 388.297 96.9047 389.571 96.8977 389.571C82.5249 380.252 73.8075 364.029 69.3125 347.225C66.635 337.078 65.4256 326.767 64.6497 316.21C64.6636 315.569 64.9782 315.002 65.4536 314.689C104.252 288.379 119.373 237.034 123.588 190.482C124.476 178.516 125.07 166.401 123.609 154.465C123.092 150.506 122.365 146.555 121.127 142.842C121.127 142.834 121.093 142.521 121.093 142.514C120.995 141.574 121.624 140.717 122.512 140.598C131.844 139.405 140.96 135.379 147.888 128.483C154.767 121.601 159.947 112.237 160.765 102.076L160.863 101.807C161.114 101.099 161.771 100.667 162.449 100.711C167.958 101.062 173.593 99.8986 178.815 97.6024C193.572 91.0192 207.889 74.4533 210.895 57.4326C211.203 56.4335 212.216 55.8595 213.153 56.2397C219.298 58.6553 225.526 60.8471 231.846 62.711C250.826 68.2206 270.644 70.815 290.295 69.1227C316.538 66.9382 342.138 57.6339 364.494 42.8423L364.991 42.6708C365.739 42.4099 366.543 42.8274 366.836 43.5953C373.051 60.2209 387.012 72.3509 402.035 79.5528C409.577 83.1612 417.764 85.614 425.908 87.1573C434.108 88.708 442.434 89.4014 450.76 89.461L451.221 89.558C451.955 89.7071 452.458 90.4004 452.437 91.1683C451.983 106.959 457.799 122.287 466.139 135.088C474.556 147.815 485.986 158.618 499.261 165.096C499.876 165.409 500.219 166.051 500.219 166.744C498.492 176.794 501.987 186.993 506.762 195.552C511.677 204.155 518.534 211.462 526.441 216.911C527.042 217.321 527.287 218.089 527.105 218.783L527.021 219.103C515.326 243.371 512.879 274.333 513.452 301.255C513.543 303.521 513.781 306.309 513.683 308.561C513.599 310.947 513.11 313.563 512.62 315.904C511.418 321.466 510.775 327.132 509.02 332.552C505.231 345.07 498.045 356.432 487.817 364.096C487.817 364.096 488.614 362.941 488.607 362.948C485.322 371.88 481.945 380.61 477.674 389.012C469.11 405.556 456.765 420.601 440.686 429.063C432.528 433.29 423.118 435.475 414.059 433.722L415.652 433.245C407.739 440.76 399.308 447.701 390.15 453.39C365.984 468.636 339.845 471.596 314.406 457.886C309.618 455.462 304.997 452.682 300.334 449.834L302.151 450.027C286.583 456.886 268.54 458.825 253.51 449.394C248.582 446.382 244.255 442.662 239.934 438.636L241.172 439.344C231.552 438.226 222.716 433.216 215.53 426.558C198.011 409.902 187.581 386.433 179.514 363.366C177.899 358.699 176.263 354.099 174.578 349.35C174.019 347.389 176.731 346.748 177.032 348.716Z" fill="#B3AAFF" fill-opacity="0.25"/>
<path d="M160.345 358.43C163.477 369.874 169.727 380.222 177.556 388.669C183.68 395.245 191.16 400.479 199.255 403.826C199.857 404.072 199.528 405.101 198.871 404.825C184.848 398.555 173.222 387.283 165.169 373.617C162.435 369.091 160.038 364.342 157.968 359.34C157.311 357.58 159.8 356.596 160.345 358.43Z" fill="#B3AAFF" fill-opacity="0.25"/>
<path d="M192.936 198.884C185.945 207.391 179.828 216.971 175.76 227.453C174.466 230.965 173.439 234.625 173.152 238.353C173.103 239.039 172.118 239.002 172.146 238.286C173.271 222.018 177.046 206.146 180.828 190.392C181.205 189.013 183.135 189.572 182.771 190.989C180.499 198.72 178.472 206.526 176.717 214.414C174.998 222.272 173.418 230.257 173.152 238.331L172.146 238.264C172.285 237.302 172.39 236.333 172.565 235.386C173.879 228.795 176.529 222.6 179.514 216.695C182.988 209.963 186.938 203.544 191.398 197.49C192.265 196.379 193.852 197.773 192.936 198.884Z" fill="#B3AAFF" fill-opacity="0.25"/>
<path d="M103.217 122.966C116.101 172.924 121.428 272.231 93.4233 316.285L93.7309 315.002C93.2556 327.736 98.5965 340.232 106.741 349.364C114.913 358.602 125.937 364.611 137.43 367.481C138.171 367.638 138.569 368.324 138.674 369.039C139.45 381.028 144.49 392.345 149.922 402.738C161.366 423.546 176.165 442.744 194.712 456.745C203.848 463.499 214.292 468.979 225.387 470.232C225.897 470.276 226.295 470.59 226.575 470.992C227.379 472.662 228.407 474.243 229.56 475.719C237.977 486.104 250.581 491.659 262.843 494.842C277.013 498.309 292.399 497.526 305.759 491.301C306.164 491.159 306.591 491.196 306.954 491.368C335.651 505.667 365.704 504.706 393.772 489.027C409.913 480.103 424.936 468.614 437.254 454.27C437.624 453.949 438.086 453.83 438.526 453.897C443.126 454.627 447.865 454.471 452.437 453.353C461.763 451.086 469.914 445.137 476.506 437.853C492.124 420.377 503.609 392.695 506.664 368.838L506.741 368.584C506.895 368.07 507.272 367.697 507.713 367.533C518.073 363.56 523.351 351.422 526.944 341.037C528.783 335.453 530.216 329.712 531.355 323.904C532.523 318.089 532.376 312.043 532.977 306.168L532.991 306.742C531.334 290.653 532.32 274.713 533.795 258.721C535.151 242.67 538.549 227.304 540.821 211.312L541.352 213.303C533.949 205.505 528.154 196.163 524.337 185.904C520.457 175.69 518.814 164.82 516.829 154.055L517.863 155.688C495.36 142.805 479.002 119.894 470.48 94.5456C467.663 86.0763 465.783 77.2416 464.853 68.1385L466.573 69.98C456.835 69.3165 447.034 68.3025 437.505 65.7901C412.157 59.4082 394.331 43.2076 379.664 20.9084C376.77 16.711 374.023 12.4167 371.024 8.22677L373.575 8.85303C335.602 32.263 292.441 48.7246 248.106 45.9363C233.433 44.9298 218.78 41.5376 205.163 35.1632L207.539 34.1865C204.135 40.2776 200.856 46.3612 196.858 52.0125C184.351 70.569 166.148 78.4345 145.036 77.3982C145.036 77.4056 146.685 76.5408 146.685 76.5408C142.519 81.1333 138.723 85.8079 134.375 90.132C121.449 103.239 103.616 109.747 85.8804 109.24L87.7749 107.339C85.8384 143.722 85.3351 180.149 79.2882 216.091C73.1713 251.594 64.3351 289.065 40.8743 316.419C40.2032 317.172 39.0847 317.209 38.3786 316.486C37.6446 315.755 37.6376 314.51 38.3577 313.765C67.1104 282.884 76.7156 230.831 81.7559 188.924C84.5591 161.883 86.4327 134.566 84.2376 107.384C84.1607 106.43 84.8248 105.587 85.7196 105.498C103.203 107.906 120.757 102.277 133.683 89.3343C137.947 85.2189 141.631 80.276 143.707 74.5129C143.854 74.1029 144.19 73.8345 144.567 73.7748L145.357 73.6481C157.996 75.7281 171.516 73.5288 182.233 65.7602C192.964 58.0663 200.926 46.0332 204.282 32.7253C204.505 31.8605 205.337 31.3535 206.148 31.5921L206.659 31.7486C252.196 55.3376 310.212 42.9094 353.449 18.642C359.818 14.8696 365.977 10.6722 371.562 5.75158C372.282 5.11787 373.387 5.27443 373.918 6.09452C373.925 6.09452 374.114 6.38529 374.114 6.38529C377.686 15.9879 383.097 24.6958 389.402 32.4942C395.687 40.3149 402.999 47.2112 411.227 52.5492C427.753 63.5087 447.509 66.4685 466.67 66.2076C467.565 66.2076 468.299 66.9382 468.369 67.8701C467.104 94.6127 480.379 120.528 498.618 138.16C504.812 144.012 511.767 149.022 519.331 152.251C519.912 152.497 520.282 153.063 520.345 153.675C520.149 156.433 519.981 159.199 520.135 161.965C520.806 175.362 525.399 188.633 532.998 199.302C536.06 203.544 539.646 207.324 543.652 210.448C544.162 210.843 544.379 211.506 544.253 212.125C544.253 212.132 544.183 212.446 544.183 212.453C540.793 219.551 539.164 227.409 537.913 235.214C536.011 246.957 534.851 258.833 534.445 270.74C534.089 282.512 534.249 294.627 536.473 306.116C536.57 307.062 536.256 307.987 536.088 308.904C534.991 314.011 533.404 319.021 532.355 324.128C529.153 339.068 524.749 358.676 512.907 368.51C511.705 369.449 510.425 370.307 509.055 371.022L510.097 369.725C502.742 391.689 496.024 414.398 482.386 433.029C471.865 447.88 456.31 459.377 438.134 457.639L439.512 457.17C429.599 464.871 420.112 472.945 409.997 480.185C376.491 504.049 343.746 510.953 305.591 494.849C305.591 494.849 306.912 494.872 306.898 494.872C292.616 499.897 277.069 500.083 262.549 496.154C248.009 492.218 234.461 484.516 223.723 473.214L224.918 473.967C201.898 469.434 183.54 451.422 168.741 433.171C157.668 419.162 148.342 403.655 141.1 387.037C138.681 381.371 136.507 375.682 135.172 369.539L136.416 371.09C119.247 364.611 103.322 352.22 96.0169 333.984C93.4793 328.02 91.7456 321.787 90.2146 315.412C90.1657 314.943 90.2845 314.488 90.5222 314.138C117.415 273.155 114.696 189.289 106.139 141.284C104.93 135.357 103.595 129.288 101.337 123.749C101.106 123.204 101.337 122.556 101.847 122.317C102.392 122.056 103.036 122.362 103.217 122.966Z" fill="#B3AAFF" fill-opacity="0.25"/>
<path d="M476.213 180.522C473.298 193.337 476.339 207.279 482.413 218.574C484.518 222.332 487.076 225.806 490.103 228.676C490.621 229.176 490.669 230.026 490.201 230.577C489.705 231.189 488.803 231.181 488.314 230.577C482.637 223.748 478.785 215.547 476.429 206.854C474.102 198.146 473.305 189.185 473.724 180.111C473.899 178.158 476.611 178.583 476.213 180.522Z" fill="#B3AAFF" fill-opacity="0.25"/>
<mask id="mask6_19_115" style="mask-type:luminance" maskUnits="userSpaceOnUse" x="533" y="251" width="21" height="60">
<path d="M533.257 251.46H553.446V310.626H533.257V251.46Z" fill="white"/>
</mask>
<g mask="url(#mask6_19_115)">
<path d="M535.466 253.51C535.354 258.483 536.57 263.471 537.647 268.302C541.016 281.49 546.819 298.854 557.298 307.279C557.766 307.622 557.871 308.307 557.542 308.792C557.214 309.284 556.571 309.388 556.123 309.023C544.134 299.189 537.549 276.547 535.004 261.122C534.641 258.55 534.284 256.037 534.459 253.398C534.487 253.108 534.732 252.884 535.004 252.906C535.291 252.936 535.494 253.204 535.466 253.51Z" fill="#B3AAFF" fill-opacity="0.25"/>
</g>
<path d="M407.152 422.659C410.591 421.824 415.212 420.511 418.505 419.356C420.077 418.834 422.461 417.82 424.041 417.224C425.614 416.597 427.851 415.412 429.424 414.689C431.179 413.749 432.891 412.735 434.625 411.759C435.457 411.207 437.568 409.798 438.365 409.261C454.877 397.713 467.153 377.777 473.598 358.072C474.206 356.298 476.737 357.342 475.912 359.161C462.854 385.546 451.829 406.615 424.74 419.013C423.88 419.386 421.427 420.467 420.581 420.832C416.75 422.457 411.738 424.045 407.753 425.276C406.082 425.738 405.432 423.091 407.152 422.659Z" fill="#B3AAFF" fill-opacity="0.25"/>
<path d="M304.305 466.057C312.442 469.822 321.781 469.941 330.373 467.883C333.281 467.167 336.14 466.198 338.943 465.058C339.202 464.946 339.503 465.08 339.601 465.363C339.698 465.632 339.58 465.937 339.335 466.049C336.532 467.339 333.658 468.45 330.708 469.322C324.773 471.029 318.538 471.685 312.4 470.91C309.317 470.537 306.269 469.74 303.326 468.532C302.676 468.271 302.347 467.488 302.599 466.795C302.858 466.072 303.647 465.729 304.305 466.057Z" fill="#B3AAFF" fill-opacity="0.25"/>
<path d="M363.313 62.1817C374.4 83.8918 396.211 98.1242 418.917 101.494C420.574 101.83 422.937 102.068 424.635 102.202C427.299 102.515 430.577 102.56 433.262 102.605C435.261 102.702 439.861 102.359 441.888 102.292C442.462 102.232 442.979 102.694 443.007 103.313C443.035 103.925 442.574 104.439 442.007 104.439L436.156 104.491L434.695 104.506L433.234 104.432C430.508 104.305 427.194 104.163 424.496 103.753C422.755 103.567 420.385 103.283 418.707 102.911C415.415 102.389 411.947 101.494 408.725 100.577C407.145 100.025 404.733 99.2425 403.16 98.6685C384.928 91.6455 372.974 79.687 361.202 63.6578C360.139 62.1295 362.355 60.4669 363.313 62.1817Z" fill="#B3AAFF" fill-opacity="0.25"/>
<path d="M482.127 47.2857C476.905 64.0604 479.652 101.83 484.846 118.835C485.846 122.093 487.076 125.337 488.978 128.006C489.16 128.244 489.125 128.595 488.894 128.781C488.67 128.967 488.342 128.915 488.181 128.669C486.202 125.747 484.993 122.444 484.007 119.126C480.267 105.781 479.03 91.7946 478.429 77.9275C478.17 70.9716 478.163 64.0157 478.646 57.0523C478.925 53.5706 479.268 50.0815 480.218 46.5775C480.372 46.0034 480.938 45.6754 481.47 45.8394C482.043 46.0183 482.351 46.6967 482.127 47.2857Z" fill="#B3AAFF" fill-opacity="0.25"/>
<path d="M218.536 77.0179C244.982 82.1771 280.075 83.7502 303.41 67.5868C303.64 67.4154 303.955 67.4825 304.116 67.7285C304.27 67.9671 304.207 68.3026 303.983 68.474C280.466 85.1742 245.065 84.0335 218.158 79.1353C216.872 78.852 217.187 76.7794 218.536 77.0179Z" fill="#B3AAFF" fill-opacity="0.25"/>
</svg>
